Hebdomadal.ufo
<glyph name="exclam" format="2">
  <advance width="548"/>
  <unicode hex="0021"/>
  <outline>
    <contour>
      <point x="100" y="314" type="line"/>
      <point x="448" y="314" type="line"/>
      <point x="448" y="0" type="line"/>
      <point x="100" y="0" type="line"/>
    </contour>
    <contour>
      <point x="80" y="1300" type="line"/>
      <point x="468" y="1300" type="line"/>
      <point x="408" y="418" type="line"/>
      <point x="140" y="418" type="line"/>
    </contour>
  </outline>
</glyph>
<glyph name="quotedbl" format="2">
  <advance width="736"/>
  <unicode hex="0022"/>
  <outline>
    <contour>
      <point x="424" y="1300" type="line"/>
      <point x="720" y="1300" type="line"/>
      <point x="480" y="720" type="line"/>
      <point x="424" y="720" type="line"/>
    </contour>
    <contour>
      <point x="72" y="1300" type="line"/>
      <point x="368" y="1300" type="line"/>
      <point x="128" y="720" type="line"/>
      <point x="72" y="720" type="line"/>
    </contour>
  </outline>
</glyph>
<glyph name="numbersign" format="2">
  <advance width="1320"/>
  <unicode hex="0023"/>
  <outline>
    <contour>
      <point x="348" y="1300" type="line"/>
      <point x="676" y="1300" type="line"/>
      <point x="596" y="784" type="line"/>
      <point x="680" y="1000" type="line"/>
      <point x="802" y="1000" type="line"/>
      <point x="848" y="1300" type="line"/>
      <point x="1176" y="1300" type="line"/>
      <point x="1130" y="1000" type="line"/>
      <point x="1240" y="1000" type="line"/>
      <point x="1240" y="728" type="line"/>
      <point x="830" y="728" type="line"/>
      <point x="1086" y="680" type="line"/>
      <point x="1058" y="520" type="line"/>
      <point x="1240" y="520" type="line"/>
      <point x="1240" y="248" type="line"/>
      <point x="1018" y="248" type="line"/>
      <point x="980" y="0" type="line"/>
      <point x="652" y="0" type="line"/>
      <point x="720" y="462" type="line"/>
      <point x="636" y="248" type="line"/>
      <point x="518" y="248" type="line"/>
      <point x="480" y="0" type="line"/>
      <point x="152" y="0" type="line"/>
      <point x="190" y="248" type="line"/>
      <point x="80" y="248" type="line"/>
      <point x="80" y="520" type="line"/>
      <point x="490" y="520" type="line"/>
      <point x="236" y="560" type="line"/>
      <point x="262" y="728" type="line"/>
      <point x="80" y="728" type="line"/>
      <point x="80" y="1000" type="line"/>
      <point x="302" y="1000" type="line"/>
    </contour>
    <contour>
      <point x="762" y="728" type="line"/>
      <point x="590" y="728" type="line"/>
      <point x="558" y="520" type="line"/>
      <point x="730" y="520" type="line"/>
    </contour>
  </outline>
</glyph>
<glyph name="dollar" format="2">
  <advance width="1028"/>
  <unicode hex="0024"/>
  <outline>
    <contour>
      <point x="530" y="1352" type="line"/>
      <point x="424" y="1474" type="line" smooth="yes"/>
      <point x="366" y="1540"/>
      <point x="438" y="1614"/>
      <point x="540" y="1614" type="curve" smooth="yes"/>
      <point x="638" y="1614"/>
      <point x="706" y="1546"/>
      <point x="646" y="1474" type="curve" smooth="yes"/>
      <point x="546" y="1352" type="line"/>
    </contour>
    <contour>
      <point x="540" y="-52" type="line"/>
      <point x="646" y="-174" type="line" smooth="yes"/>
      <point x="704" y="-240"/>
      <point x="634" y="-314"/>
      <point x="532" y="-314" type="curve" smooth="yes"/>
      <point x="434" y="-314"/>
      <point x="364" y="-246"/>
      <point x="424" y="-174" type="curve" smooth="yes"/>
      <point x="524" y="-52" type="line"/>
    </contour>
    <contour>
      <point x="536" y="1300" type="curve" smooth="yes"/>
      <point x="552" y="1300" type="line" smooth="yes"/>
      <point x="826" y="1300"/>
      <point x="968" y="1234"/>
      <point x="968" y="1060" type="curve" smooth="yes"/>
      <point x="968" y="934"/>
      <point x="894" y="838"/>
      <point x="760" y="838" type="curve" smooth="yes"/>
      <point x="660" y="838"/>
      <point x="608" y="892"/>
      <point x="608" y="974" type="curve" smooth="yes"/>
      <point x="608" y="1130"/>
      <point x="800" y="1266"/>
      <point x="704" y="1266" type="curve" smooth="yes"/>
      <point x="698" y="1266" type="line" smooth="yes"/>
      <point x="498" y="1266"/>
      <point x="432" y="1172"/>
      <point x="432" y="1072" type="curve" smooth="yes"/>
      <point x="432" y="788"/>
      <point x="968" y="706"/>
      <point x="968" y="328" type="curve" smooth="yes"/>
      <point x="968" y="108"/>
      <point x="786" y="0"/>
      <point x="532" y="0" type="curve" smooth="yes"/>
      <point x="516" y="0" type="line" smooth="yes"/>
      <point x="234" y="0"/>
      <point x="60" y="96"/>
      <point x="60" y="282" type="curve" smooth="yes"/>
      <point x="60" y="398"/>
      <point x="128" y="488"/>
      <point x="260" y="488" type="curve" smooth="yes"/>
      <point x="356" y="488"/>
      <point x="428" y="440"/>
      <point x="428" y="340" type="curve" smooth="yes"/>
      <point x="428" y="170"/>
      <point x="226" y="44"/>
      <point x="344" y="44" type="curve" smooth="yes"/>
      <point x="350" y="44" type="line" smooth="yes"/>
      <point x="546" y="44"/>
      <point x="620" y="140"/>
      <point x="620" y="228" type="curve" smooth="yes"/>
      <point x="620" y="458"/>
      <point x="100" y="638"/>
      <point x="100" y="978" type="curve" smooth="yes"/>
      <point x="100" y="1180"/>
      <point x="282" y="1300"/>
    </contour>
  </outline>
</glyph>
<glyph name="percent" format="2">
  <advance width="1310"/>
  <unicode hex="0025"/>
  <outline>
    <contour>
      <point x="90" y="490" type="line"/>
      <point x="154" y="342" type="line"/>
      <point x="1206" y="804" type="line"/>
      <point x="1142" y="952" type="line"/>
    </contour>
    <contour>
      <point x="800" y="258" type="curve" smooth="yes"/>
      <point x="800" y="173"/>
      <point x="859" y="117"/>
      <point x="948" y="117" type="curve" smooth="yes"/>
      <point x="1037" y="117"/>
      <point x="1096" y="173"/>
      <point x="1096" y="258" type="curve" smooth="yes"/>
      <point x="1096" y="343"/>
      <point x="1037" y="399"/>
      <point x="948" y="399" type="curve" smooth="yes"/>
      <point x="859" y="399"/>
      <point x="800" y="343"/>
    </contour>
    <contour>
      <point x="646" y="258" type="curve" smooth="yes"/>
      <point x="646" y="426"/>
      <point x="772" y="546"/>
      <point x="948" y="546" type="curve" smooth="yes"/>
      <point x="1124" y="546"/>
      <point x="1250" y="426"/>
      <point x="1250" y="258" type="curve" smooth="yes"/>
      <point x="1250" y="90"/>
      <point x="1124" y="-30"/>
      <point x="948" y="-30" type="curve" smooth="yes"/>
      <point x="772" y="-30"/>
      <point x="646" y="90"/>
    </contour>
    <contour>
      <point x="214" y="1036" type="curve" smooth="yes"/>
      <point x="214" y="951"/>
      <point x="273" y="895"/>
      <point x="362" y="895" type="curve" smooth="yes"/>
      <point x="451" y="895"/>
      <point x="510" y="951"/>
      <point x="510" y="1036" type="curve" smooth="yes"/>
      <point x="510" y="1121"/>
      <point x="451" y="1177"/>
      <point x="362" y="1177" type="curve" smooth="yes"/>
      <point x="273" y="1177"/>
      <point x="214" y="1121"/>
    </contour>
    <contour>
      <point x="60" y="1036" type="curve" smooth="yes"/>
      <point x="60" y="1204"/>
      <point x="186" y="1324"/>
      <point x="362" y="1324" type="curve" smooth="yes"/>
      <point x="538" y="1324"/>
      <point x="664" y="1204"/>
      <point x="664" y="1036" type="curve" smooth="yes"/>
      <point x="664" y="868"/>
      <point x="538" y="748"/>
      <point x="362" y="748" type="curve" smooth="yes"/>
      <point x="186" y="748"/>
      <point x="60" y="868"/>
    </contour>
  </outline>
</glyph>
<glyph name="ampersand" format="2">
  <advance width="1388"/>
  <unicode hex="0026"/>
  <outline>
    <contour>
      <point x="1388" y="232" type="line"/>
      <point x="889" y="232"/>
      <point x="376" y="597"/>
      <point x="376" y="947" type="curve" smooth="yes"/>
      <point x="376" y="1034"/>
      <point x="408" y="1078"/>
      <point x="467" y="1078" type="curve" smooth="yes"/>
      <point x="523" y="1078"/>
      <point x="552" y="1039"/>
      <point x="552" y="972" type="curve" smooth="yes"/>
      <point x="552" y="697"/>
      <point x="40" y="589"/>
      <point x="40" y="271" type="curve" smooth="yes"/>
      <point x="40" y="112"/>
      <point x="168" y="-20"/>
      <point x="349" y="-20" type="curve" smooth="yes"/>
      <point x="810" y="-20"/>
      <point x="722" y="784"/>
      <point x="1057" y="784" type="curve" smooth="yes"/>
      <point x="1115" y="784"/>
      <point x="1154" y="749"/>
      <point x="1154" y="705" type="curve" smooth="yes"/>
      <point x="1154" y="649"/>
      <point x="1102" y="609"/>
      <point x="1014" y="570" type="curve"/>
      <point x="1026" y="546" type="line"/>
      <point x="1173" y="607"/>
      <point x="1270" y="710"/>
      <point x="1270" y="812" type="curve" smooth="yes"/>
      <point x="1270" y="887"/>
      <point x="1208" y="1000"/>
      <point x="1058" y="1000" type="curve" smooth="yes"/>
      <point x="682" y="1000"/>
      <point x="890" y="208"/>
      <point x="485" y="208" type="curve" smooth="yes"/>
      <point x="356" y="208"/>
      <point x="280" y="289"/>
      <point x="280" y="413" type="curve" smooth="yes"/>
      <point x="280" y="693"/>
      <point x="664" y="799"/>
      <point x="664" y="1092" type="curve" smooth="yes"/>
      <point x="664" y="1223"/>
      <point x="587" y="1312"/>
      <point x="473" y="1312" type="curve" smooth="yes"/>
      <point x="356" y="1312"/>
      <point x="272" y="1217"/>
      <point x="272" y="1087" type="curve" smooth="yes"/>
      <point x="272" y="712"/>
      <point x="973" y="-20"/>
      <point x="1332" y="-20" type="curve"/>
    </contour>
  </outline>
</glyph>
<glyph name="quotesingle" format="2">
  <advance width="384"/>
  <unicode hex="0027"/>
  <outline>
    <contour>
      <point x="72" y="1300" type="line"/>
      <point x="368" y="1300" type="line"/>
      <point x="128" y="720" type="line"/>
      <point x="72" y="720" type="line"/>
    </contour>
  </outline>
</glyph>
<glyph name="parenleft" format="2">
  <advance width="672"/>
  <unicode hex="0028"/>
  <outline>
    <contour>
      <point x="120" y="560" type="line"/>
      <point x="0" y="560" type="line"/>
      <point x="0" y="440" type="line"/>
      <point x="120" y="440" type="line"/>
    </contour>
    <contour>
      <point x="432" y="560" type="line"/>
      <point x="312" y="560" type="line"/>
      <point x="312" y="440" type="line"/>
      <point x="432" y="440" type="line"/>
    </contour>
    <contour>
      <point x="672" y="1440" type="line"/>
      <point x="552" y="1440" type="line"/>
      <point x="552" y="1320" type="line"/>
      <point x="672" y="1320" type="line"/>
    </contour>
    <contour>
      <point x="360" y="1440" type="line"/>
      <point x="240" y="1440" type="line"/>
      <point x="240" y="1320" type="line"/>
      <point x="360" y="1320" type="line"/>
    </contour>
    <contour>
      <point x="672" y="-320" type="line"/>
      <point x="552" y="-320" type="line"/>
      <point x="552" y="-440" type="line"/>
      <point x="672" y="-440" type="line"/>
    </contour>
    <contour>
      <point x="360" y="-320" type="line"/>
      <point x="240" y="-320" type="line"/>
      <point x="240" y="-440" type="line"/>
      <point x="360" y="-440" type="line"/>
    </contour>
    <contour>
      <point x="300" y="1380" type="curve"/>
      <point x="612" y="1380" type="line"/>
      <point x="453" y="1153"/>
      <point x="372" y="856"/>
      <point x="372" y="500" type="curve" smooth="yes"/>
      <point x="372" y="144"/>
      <point x="453" y="-153"/>
      <point x="612" y="-380" type="curve"/>
      <point x="300" y="-380" type="line"/>
      <point x="142" y="-177"/>
      <point x="60" y="124"/>
      <point x="60" y="500" type="curve" smooth="yes"/>
      <point x="60" y="876"/>
      <point x="142" y="1177"/>
    </contour>
  </outline>
</glyph>
<glyph name="parenright" format="2">
  <advance width="672"/>
  <unicode hex="0029"/>
  <outline>
    <contour>
      <point x="552" y="560" type="line"/>
      <point x="552" y="440" type="line"/>
      <point x="672" y="440" type="line"/>
      <point x="672" y="560" type="line"/>
    </contour>
    <contour>
      <point x="240" y="560" type="line"/>
      <point x="240" y="440" type="line"/>
      <point x="360" y="440" type="line"/>
      <point x="360" y="560" type="line"/>
    </contour>
    <contour>
      <point x="0" y="1440" type="line"/>
      <point x="0" y="1320" type="line"/>
      <point x="120" y="1320" type="line"/>
      <point x="120" y="1440" type="line"/>
    </contour>
    <contour>
      <point x="312" y="1440" type="line"/>
      <point x="312" y="1320" type="line"/>
      <point x="432" y="1320" type="line"/>
      <point x="432" y="1440" type="line"/>
    </contour>
    <contour>
      <point x="0" y="-320" type="line"/>
      <point x="0" y="-440" type="line"/>
      <point x="120" y="-440" type="line"/>
      <point x="120" y="-320" type="line"/>
    </contour>
    <contour>
      <point x="312" y="-320" type="line"/>
      <point x="312" y="-440" type="line"/>
      <point x="432" y="-440" type="line"/>
      <point x="432" y="-320" type="line"/>
    </contour>
    <contour>
      <point x="372" y="1380" type="line"/>
      <point x="530" y="1177"/>
      <point x="612" y="876"/>
      <point x="612" y="500" type="curve" smooth="yes"/>
      <point x="612" y="124"/>
      <point x="530" y="-177"/>
      <point x="372" y="-380" type="curve"/>
      <point x="60" y="-380" type="line"/>
      <point x="219" y="-153"/>
      <point x="300" y="144"/>
      <point x="300" y="500" type="curve" smooth="yes"/>
      <point x="300" y="856"/>
      <point x="219" y="1153"/>
      <point x="60" y="1380" type="curve"/>
    </contour>
  </outline>
</glyph>
<glyph name="asterisk" format="2">
  <advance width="1114"/>
  <unicode hex="002A"/>
  <outline>
    <contour>
      <point x="62" y="860" type="curve" smooth="yes"/>
      <point x="62" y="928"/>
      <point x="118" y="988"/>
      <point x="182" y="988" type="curve" smooth="yes"/>
      <point x="220" y="988"/>
      <point x="258" y="968"/>
      <point x="292" y="932" type="curve" smooth="yes"/>
      <point x="504" y="702" type="line" smooth="yes"/>
      <point x="518" y="686"/>
      <point x="542" y="700"/>
      <point x="536" y="720" type="curve" smooth="yes"/>
      <point x="442" y="1018" type="line" smooth="yes"/>
      <point x="436" y="1034"/>
      <point x="434" y="1052"/>
      <point x="434" y="1070" type="curve" smooth="yes"/>
      <point x="434" y="1146"/>
      <point x="486" y="1198"/>
      <point x="558" y="1198" type="curve" smooth="yes"/>
      <point x="630" y="1198"/>
      <point x="682" y="1146"/>
      <point x="682" y="1076" type="curve" smooth="yes"/>
      <point x="682" y="1060"/>
      <point x="680" y="1044"/>
      <point x="672" y="1018" type="curve" smooth="yes"/>
      <point x="580" y="720" type="line" smooth="yes"/>
      <point x="574" y="698"/>
      <point x="594" y="686"/>
      <point x="610" y="702" type="curve" smooth="yes"/>
      <point x="822" y="932" type="line" smooth="yes"/>
      <point x="852" y="966"/>
      <point x="890" y="984"/>
      <point x="928" y="984" type="curve" smooth="yes"/>
      <point x="996" y="984"/>
      <point x="1054" y="924"/>
      <point x="1054" y="856" type="curve" smooth="yes"/>
      <point x="1054" y="796"/>
      <point x="1008" y="748"/>
      <point x="936" y="732" type="curve" smooth="yes"/>
      <point x="632" y="664" type="line" smooth="yes"/>
      <point x="608" y="658"/>
      <point x="608" y="634"/>
      <point x="632" y="628" type="curve" smooth="yes"/>
      <point x="936" y="560" type="line" smooth="yes"/>
      <point x="1006" y="544"/>
      <point x="1052" y="494"/>
      <point x="1052" y="432" type="curve" smooth="yes"/>
      <point x="1052" y="364"/>
      <point x="996" y="304"/>
      <point x="932" y="304" type="curve" smooth="yes"/>
      <point x="894" y="304"/>
      <point x="856" y="324"/>
      <point x="822" y="360" type="curve" smooth="yes"/>
      <point x="610" y="590" type="line" smooth="yes"/>
      <point x="597" y="604"/>
      <point x="572" y="592"/>
      <point x="578" y="572" type="curve" smooth="yes"/>
      <point x="672" y="274" type="line" smooth="yes"/>
      <point x="678" y="258"/>
      <point x="680" y="240"/>
      <point x="680" y="222" type="curve" smooth="yes"/>
      <point x="680" y="146"/>
      <point x="628" y="94"/>
      <point x="556" y="94" type="curve" smooth="yes"/>
      <point x="484" y="94"/>
      <point x="432" y="146"/>
      <point x="432" y="216" type="curve" smooth="yes"/>
      <point x="432" y="232"/>
      <point x="434" y="248"/>
      <point x="442" y="274" type="curve" smooth="yes"/>
      <point x="534" y="572" type="line" smooth="yes"/>
      <point x="541" y="594"/>
      <point x="520" y="608"/>
      <point x="504" y="590" type="curve" smooth="yes"/>
      <point x="292" y="360" type="line" smooth="yes"/>
      <point x="262" y="326"/>
      <point x="224" y="308"/>
      <point x="186" y="308" type="curve" smooth="yes"/>
      <point x="118" y="308"/>
      <point x="60" y="368"/>
      <point x="60" y="436" type="curve" smooth="yes"/>
      <point x="60" y="496"/>
      <point x="106" y="544"/>
      <point x="178" y="560" type="curve" smooth="yes"/>
      <point x="482" y="628" type="line" smooth="yes"/>
      <point x="500" y="632"/>
      <point x="500" y="660"/>
      <point x="482" y="664" type="curve" smooth="yes"/>
      <point x="178" y="732" type="line" smooth="yes"/>
      <point x="108" y="748"/>
      <point x="62" y="798"/>
    </contour>
  </outline>
</glyph>
<glyph name="plus" format="2">
  <advance width="912"/>
  <unicode hex="002B"/>
  <outline>
    <contour>
      <point x="60" y="708" type="line"/>
      <point x="60" y="500" type="line"/>
      <point x="352" y="500" type="line"/>
      <point x="352" y="208" type="line"/>
      <point x="560" y="208" type="line"/>
      <point x="560" y="500" type="line"/>
      <point x="852" y="500" type="line"/>
      <point x="852" y="708" type="line"/>
      <point x="560" y="708" type="line"/>
      <point x="560" y="1000" type="line"/>
      <point x="352" y="1000" type="line"/>
      <point x="352" y="708" type="line"/>
    </contour>
  </outline>
</glyph>
<glyph name="hyphen" format="2">
  <advance width="648"/>
  <unicode hex="002D"/>
  <outline>
    <contour>
      <point x="60" y="712" type="line"/>
      <point x="588" y="712" type="line"/>
      <point x="588" y="504" type="line"/>
      <point x="60" y="504" type="line"/>
    </contour>
  </outline>
</glyph>
<glyph name="slash" format="2">
  <advance width="696"/>
  <unicode hex="002F"/>
  <outline>
    <contour>
      <point x="424" y="1300" type="line"/>
      <point x="666" y="1300" type="line"/>
      <point x="272" y="0" type="line"/>
      <point x="30" y="0" type="line"/>
    </contour>
  </outline>
</glyph>
<glyph name="zero" format="2">
  <advance width="1192"/>
  <unicode hex="0030"/>
  <outline>
    <contour>
      <point x="96" y="80" type="line"/>
      <point x="428" y="367"/>
      <point x="748" y="666"/>
      <point x="1064" y="980" type="curve"/>
      <point x="1132" y="908" type="line"/>
      <point x="789" y="617"/>
      <point x="465" y="317"/>
      <point x="162" y="8" type="curve"/>
    </contour>
    <contour>
      <point x="158" y="500" type="curve" smooth="yes"/>
      <point x="158" y="257"/>
      <point x="344" y="78"/>
      <point x="596" y="78" type="curve" smooth="yes"/>
      <point x="848" y="78"/>
      <point x="1034" y="257"/>
      <point x="1034" y="500" type="curve" smooth="yes"/>
      <point x="1034" y="743"/>
      <point x="848" y="922"/>
      <point x="596" y="922" type="curve" smooth="yes"/>
      <point x="344" y="922"/>
      <point x="158" y="743"/>
    </contour>
    <contour>
      <point x="84" y="500" type="curve" smooth="yes"/>
      <point x="84" y="794"/>
      <point x="304" y="1016"/>
      <point x="596" y="1016" type="curve" smooth="yes"/>
      <point x="888" y="1016"/>
      <point x="1108" y="794"/>
      <point x="1108" y="500" type="curve" smooth="yes"/>
      <point x="1108" y="206"/>
      <point x="888" y="-16"/>
      <point x="596" y="-16" type="curve" smooth="yes"/>
      <point x="304" y="-16"/>
      <point x="84" y="206"/>
    </contour>
  </outline>
</glyph>
<glyph name="one" format="2">
  <advance width="588"/>
  <unicode hex="0031"/>
  <outline>
    <contour>
      <point x="296" y="1000" type="curve"/>
      <point x="488" y="1000" type="line"/>
      <point x="488" y="0" type="line"/>
      <point x="276" y="0" type="line"/>
      <point x="276" y="666" type="line"/>
      <point x="40" y="666" type="line"/>
      <point x="40" y="836" type="line"/>
      <point x="56" y="836" type="line" smooth="yes"/>
      <point x="223" y="836"/>
      <point x="272" y="886"/>
    </contour>
  </outline>
</glyph>
<glyph name="two" format="2">
  <advance width="964"/>
  <unicode hex="0032"/>
  <outline>
    <contour>
      <point x="60" y="642" type="line"/>
      <point x="138" y="882"/>
      <point x="302" y="1014"/>
      <point x="520" y="1014" type="curve" smooth="yes"/>
      <point x="740" y="1014"/>
      <point x="900" y="878"/>
      <point x="900" y="690" type="curve" smooth="yes"/>
      <point x="900" y="522"/>
      <point x="772" y="400"/>
      <point x="434" y="246" type="curve"/>
      <point x="838" y="246" type="line"/>
      <point x="884" y="366" type="line"/>
      <point x="904" y="366" type="line"/>
      <point x="904" y="2" type="line"/>
      <point x="60" y="2" type="line"/>
      <point x="60" y="24" type="line"/>
      <point x="584" y="380"/>
      <point x="704" y="490"/>
      <point x="704" y="620" type="curve" smooth="yes"/>
      <point x="704" y="726"/>
      <point x="610" y="788"/>
      <point x="446" y="788" type="curve" smooth="yes"/>
      <point x="304" y="788"/>
      <point x="194" y="744"/>
      <point x="80" y="642" type="curve"/>
    </contour>
  </outline>
</glyph>
<glyph name="three" format="2">
  <advance width="852"/>
  <unicode hex="0033"/>
  <outline>
    <contour>
      <point x="60" y="912" type="curve"/>
      <point x="60" y="740" type="line"/>
      <point x="186" y="789"/>
      <point x="293" y="814"/>
      <point x="378" y="814" type="curve" smooth="yes"/>
      <point x="505" y="814"/>
      <point x="580" y="759"/>
      <point x="580" y="666" type="curve" smooth="yes"/>
      <point x="580" y="590"/>
      <point x="520" y="540"/>
      <point x="428" y="540" type="curve" smooth="yes"/>
      <point x="186" y="540" type="line"/>
      <point x="186" y="344" type="line"/>
      <point x="426" y="344" type="line" smooth="yes"/>
      <point x="509" y="344"/>
      <point x="568" y="286"/>
      <point x="568" y="204" type="curve" smooth="yes"/>
      <point x="568" y="149"/>
      <point x="542" y="96"/>
      <point x="492" y="46" type="curve" smooth="yes"/>
      <point x="44" y="-400" type="line"/>
      <point x="336" y="-400" type="line"/>
      <point x="632" y="-96" type="line" smooth="yes"/>
      <point x="743" y="18"/>
      <point x="788" y="98"/>
      <point x="788" y="182" type="curve" smooth="yes"/>
      <point x="788" y="301"/>
      <point x="695" y="416"/>
      <point x="578" y="440" type="curve"/>
      <point x="718" y="484"/>
      <point x="788" y="572"/>
      <point x="788" y="701" type="curve" smooth="yes"/>
      <point x="788" y="885"/>
      <point x="635" y="1012"/>
      <point x="416" y="1012" type="curve" smooth="yes"/>
      <point x="308" y="1012"/>
      <point x="194" y="980"/>
    </contour>
  </outline>
</glyph>
<glyph name="four" format="2">
  <advance width="996"/>
  <unicode hex="0034"/>
  <outline>
    <contour>
      <point x="724" y="208" type="line"/>
      <point x="274" y="208" type="line"/>
      <point x="274" y="210" type="line"/>
      <point x="184" y="300" type="line"/>
      <point x="274" y="390" type="line"/>
      <point x="724" y="390" type="line"/>
      <point x="814" y="300" type="line"/>
      <point x="724" y="210" type="line"/>
    </contour>
    <contour>
      <point x="740" y="-320" type="line"/>
      <point x="740" y="190" type="line"/>
      <point x="742" y="190" type="line"/>
      <point x="832" y="280" type="line"/>
      <point x="922" y="190" type="line"/>
      <point x="922" y="-320" type="line"/>
      <point x="832" y="-410" type="line"/>
      <point x="742" y="-320" type="line"/>
    </contour>
    <contour>
      <point x="742" y="410" type="line"/>
      <point x="742" y="920" type="line"/>
      <point x="744" y="920" type="line"/>
      <point x="834" y="1010" type="line"/>
      <point x="924" y="920" type="line"/>
      <point x="924" y="410" type="line"/>
      <point x="834" y="320" type="line"/>
      <point x="744" y="410" type="line"/>
    </contour>
    <contour>
      <point x="72" y="410" type="line"/>
      <point x="72" y="920" type="line"/>
      <point x="74" y="920" type="line"/>
      <point x="164" y="1010" type="line"/>
      <point x="254" y="920" type="line"/>
      <point x="254" y="410" type="line"/>
      <point x="164" y="320" type="line"/>
      <point x="74" y="410" type="line"/>
    </contour>
  </outline>
</glyph>
<glyph name="five" format="2">
  <advance width="1064"/>
  <unicode hex="0035"/>
  <outline>
    <contour>
      <point x="974" y="766" type="line"/>
      <point x="314" y="766" type="line"/>
      <point x="314" y="434" type="line"/>
      <point x="974" y="434" type="line"/>
      <point x="974" y="194" type="line"/>
      <point x="524" y="-402" type="line"/>
      <point x="210" y="-402" type="line"/>
      <point x="680" y="200" type="line"/>
      <point x="90" y="200" type="line"/>
      <point x="90" y="1000" type="line"/>
      <point x="974" y="1000" type="line"/>
    </contour>
  </outline>
</glyph>
<glyph name="six" format="2">
  <advance width="984"/>
  <unicode hex="0036"/>
  <outline>
    <contour>
      <point x="80" y="1042" type="line"/>
      <point x="482" y="784" type="line"/>
      <point x="482" y="660" type="line"/>
      <point x="298" y="660" type="line"/>
      <point x="194" y="720" type="line" smooth="yes"/>
      <point x="121" y="762"/>
      <point x="80" y="825"/>
      <point x="80" y="894" type="curve" smooth="yes"/>
    </contour>
    <contour>
      <point x="332" y="1300" type="curve" smooth="yes"/>
      <point x="652" y="1300" type="line" smooth="yes"/>
      <point x="807" y="1300"/>
      <point x="904" y="1212"/>
      <point x="904" y="1066" type="curve"/>
      <point x="684" y="924" type="line"/>
      <point x="684" y="980" type="line" smooth="yes"/>
      <point x="684" y="1051"/>
      <point x="646" y="1088"/>
      <point x="572" y="1088" type="curve" smooth="yes"/>
      <point x="412" y="1088" type="line" smooth="yes"/>
      <point x="338" y="1088"/>
      <point x="300" y="1052"/>
      <point x="300" y="980" type="curve" smooth="yes"/>
      <point x="300" y="924" type="line"/>
      <point x="80" y="1066" type="line"/>
      <point x="80" y="1212"/>
      <point x="177" y="1300"/>
    </contour>
    <contour>
      <point x="574" y="1090" type="line" smooth="yes"/>
      <point x="646" y="1090"/>
      <point x="686" y="1052"/>
      <point x="686" y="982" type="curve" smooth="yes"/>
      <point x="686" y="929" type="line"/>
      <point x="902" y="1067" type="line"/>
      <point x="901" y="1212"/>
      <point x="806" y="1298"/>
      <point x="652" y="1298" type="curve" smooth="yes"/>
      <point x="332" y="1298" type="line" smooth="yes"/>
      <point x="178" y="1298"/>
      <point x="83" y="1212"/>
      <point x="82" y="1067" type="curve"/>
      <point x="298" y="929" type="line"/>
      <point x="298" y="982" type="line" smooth="yes"/>
      <point x="298" y="1052"/>
      <point x="338" y="1090"/>
      <point x="410" y="1090" type="curve" smooth="yes"/>
    </contour>
    <contour>
      <point x="480" y="662" type="line"/>
      <point x="480" y="783" type="line"/>
      <point x="82" y="1037" type="line"/>
      <point x="82" y="894" type="line" smooth="yes"/>
      <point x="82" y="826"/>
      <point x="123" y="763"/>
      <point x="196" y="721" type="curve" smooth="yes"/>
      <point x="299" y="662" type="line"/>
    </contour>
    <contour>
      <point x="652" y="0" type="curve" smooth="yes"/>
      <point x="332" y="0" type="line" smooth="yes"/>
      <point x="177" y="0"/>
      <point x="80" y="90"/>
      <point x="80" y="234" type="curve"/>
      <point x="300" y="376" type="line"/>
      <point x="300" y="320" type="line" smooth="yes"/>
      <point x="300" y="249"/>
      <point x="338" y="212"/>
      <point x="412" y="212" type="curve" smooth="yes"/>
      <point x="572" y="212" type="line" smooth="yes"/>
      <point x="646" y="212"/>
      <point x="684" y="248"/>
      <point x="684" y="320" type="curve" smooth="yes"/>
      <point x="684" y="376" type="line"/>
      <point x="904" y="234" type="line"/>
      <point x="904" y="90"/>
      <point x="807" y="0"/>
    </contour>
    <contour>
      <point x="904" y="1042" type="line"/>
      <point x="904" y="894" type="line" smooth="yes"/>
      <point x="904" y="825"/>
      <point x="863" y="762"/>
      <point x="790" y="720" type="curve" smooth="yes"/>
      <point x="686" y="660" type="line"/>
      <point x="502" y="660" type="line"/>
      <point x="502" y="784" type="line"/>
    </contour>
    <contour>
      <point x="904" y="258" type="line"/>
      <point x="502" y="516" type="line"/>
      <point x="502" y="640" type="line"/>
      <point x="686" y="640" type="line"/>
      <point x="790" y="580" type="line" smooth="yes"/>
      <point x="863" y="538"/>
      <point x="904" y="475"/>
      <point x="904" y="406" type="curve" smooth="yes"/>
    </contour>
    <contour>
      <point x="80" y="258" type="line"/>
      <point x="80" y="406" type="line" smooth="yes"/>
      <point x="80" y="475"/>
      <point x="121" y="538"/>
      <point x="194" y="580" type="curve" smooth="yes"/>
      <point x="298" y="640" type="line"/>
      <point x="482" y="640" type="line"/>
      <point x="482" y="516" type="line"/>
    </contour>
  </outline>
</glyph>
<glyph name="seven" format="2">
  <advance width="1076"/>
  <unicode hex="0037"/>
  <outline>
    <contour>
      <point x="68" y="986" type="curve" smooth="yes"/>
      <point x="68" y="444" type="line" smooth="yes"/>
      <point x="68" y="418"/>
      <point x="85" y="402"/>
      <point x="114" y="402" type="curve" smooth="yes"/>
      <point x="232" y="402"/>
      <point x="768" y="482"/>
      <point x="902" y="482" type="curve" smooth="yes"/>
      <point x="918" y="482"/>
      <point x="916" y="466"/>
      <point x="900" y="460" type="curve" smooth="yes"/>
      <point x="384" y="282"/>
      <point x="174" y="85"/>
      <point x="174" y="-126" type="curve" smooth="yes"/>
      <point x="174" y="-291"/>
      <point x="303" y="-400"/>
      <point x="498" y="-400" type="curve" smooth="yes"/>
      <point x="699" y="-400"/>
      <point x="838" y="-294"/>
      <point x="838" y="-140" type="curve" smooth="yes"/>
      <point x="838" y="56"/>
      <point x="660" y="122"/>
      <point x="660" y="240" type="curve" smooth="yes"/>
      <point x="660" y="316"/>
      <point x="721" y="339"/>
      <point x="904" y="412" type="curve" smooth="yes"/>
      <point x="988" y="445"/>
      <point x="1008" y="462"/>
      <point x="1008" y="514" type="curve" smooth="yes"/>
      <point x="1008" y="958" type="line" smooth="yes"/>
      <point x="1008" y="985"/>
      <point x="984" y="1000"/>
      <point x="942" y="1000" type="curve" smooth="yes"/>
      <point x="822" y="1000"/>
      <point x="287" y="888"/>
      <point x="167" y="888" type="curve" smooth="yes"/>
      <point x="128" y="888"/>
      <point x="112" y="898"/>
      <point x="112" y="922" type="curve" smooth="yes"/>
      <point x="112" y="986" type="line" smooth="yes"/>
      <point x="112" y="1013"/>
      <point x="68" y="1013"/>
    </contour>
  </outline>
</glyph>
<glyph name="eight" format="2">
  <advance width="1088"/>
  <unicode hex="0038"/>
  <outline>
    <contour>
      <point x="280" y="556" type="line"/>
      <point x="280" y="192" type="line"/>
      <point x="808" y="192" type="line"/>
      <point x="808" y="556" type="line"/>
    </contour>
    <contour>
      <point x="220" y="1116" type="line" smooth="yes"/>
      <point x="220" y="1224"/>
      <point x="296" y="1300"/>
      <point x="404" y="1300" type="curve" smooth="yes"/>
      <point x="660" y="1300" type="line" smooth="yes"/>
      <point x="782" y="1300"/>
      <point x="868" y="1224"/>
      <point x="868" y="1116" type="curve" smooth="yes"/>
      <point x="868" y="739" type="line"/>
      <point x="953" y="716"/>
      <point x="1008" y="651"/>
      <point x="1008" y="564" type="curve" smooth="yes"/>
      <point x="1008" y="184" type="line" smooth="yes"/>
      <point x="1008" y="76"/>
      <point x="928" y="0"/>
      <point x="816" y="0" type="curve" smooth="yes"/>
      <point x="280" y="0" type="line" smooth="yes"/>
      <point x="162" y="0"/>
      <point x="80" y="76"/>
      <point x="80" y="184" type="curve" smooth="yes"/>
      <point x="80" y="564" type="line" smooth="yes"/>
      <point x="80" y="657"/>
      <point x="136" y="726"/>
      <point x="220" y="744" type="curve"/>
    </contour>
    <contour>
      <point x="668" y="748" type="line"/>
      <point x="668" y="1108" type="line"/>
      <point x="420" y="1108" type="line"/>
      <point x="420" y="748" type="line"/>
    </contour>
  </outline>
</glyph>
<glyph name="nine" format="2">
  <advance width="954"/>
  <unicode hex="0039"/>
  <outline>
    <contour>
      <point x="346" y="-394" type="curve" smooth="yes"/>
      <point x="318" y="-394"/>
      <point x="296" y="-372"/>
      <point x="296" y="-344" type="curve" smooth="yes"/>
      <point x="296" y="-339"/>
      <point x="296" y="-334"/>
      <point x="298" y="-329" type="curve" smooth="yes"/>
      <point x="362" y="-127"/>
      <point x="442" y="78"/>
      <point x="583" y="404" type="curve"/>
      <point x="505" y="327"/>
      <point x="420" y="290"/>
      <point x="326" y="290" type="curve" smooth="yes"/>
      <point x="173" y="290"/>
      <point x="76" y="406"/>
      <point x="76" y="590" type="curve" smooth="yes"/>
      <point x="76" y="821"/>
      <point x="267" y="1000"/>
      <point x="514" y="1000" type="curve" smooth="yes"/>
      <point x="606" y="1000"/>
      <point x="698" y="964"/>
      <point x="759" y="903" type="curve" smooth="yes"/>
      <point x="766" y="896"/>
      <point x="772" y="889"/>
      <point x="777" y="882" type="curve"/>
      <point x="790" y="907"/>
      <point x="805" y="934"/>
      <point x="822" y="965" type="curve" smooth="yes"/>
      <point x="831" y="981"/>
      <point x="847" y="992"/>
      <point x="866" y="992" type="curve" smooth="yes"/>
      <point x="894" y="992"/>
      <point x="916" y="970"/>
      <point x="916" y="942" type="curve" smooth="yes"/>
      <point x="916" y="936"/>
      <point x="914" y="929"/>
      <point x="912" y="923" type="curve" smooth="yes"/>
      <point x="907" y="910"/>
      <point x="508" y="1"/>
      <point x="394" y="-359" type="curve" smooth="yes"/>
      <point x="387" y="-380"/>
      <point x="368" y="-394"/>
    </contour>
    <contour>
      <point x="514" y="900" type="curve" smooth="yes"/>
      <point x="322" y="900"/>
      <point x="176" y="766"/>
      <point x="176" y="590" type="curve" smooth="yes"/>
      <point x="176" y="462"/>
      <point x="230" y="390"/>
      <point x="326" y="390" type="curve" smooth="yes"/>
      <point x="462" y="390"/>
      <point x="558" y="487"/>
      <point x="731" y="797" type="curve"/>
      <point x="719" y="800"/>
      <point x="708" y="808"/>
      <point x="701" y="818" type="curve" smooth="yes"/>
      <point x="670" y="863"/>
      <point x="586" y="900"/>
    </contour>
  </outline>
</glyph>
<glyph name="colon" format="2">
  <advance width="356"/>
  <unicode hex="003A"/>
  <outline>
    <contour>
      <point x="60" y="1000" type="line"/>
      <point x="296" y="1000" type="line"/>
      <point x="296" y="764" type="line"/>
      <point x="60" y="764" type="line"/>
    </contour>
    <contour>
      <point x="60" y="236" type="line"/>
      <point x="296" y="236" type="line"/>
      <point x="296" y="0" type="line"/>
      <point x="60" y="0" type="line"/>
    </contour>
  </outline>
</glyph>
<glyph name="semicolon" format="2">
  <advance width="356"/>
  <unicode hex="003B"/>
  <outline>
    <contour>
      <point x="60" y="236" type="line"/>
      <point x="296" y="236" type="line"/>
      <point x="296" y="-44" type="line" smooth="yes"/>
      <point x="296" y="-149"/>
      <point x="281" y="-322"/>
      <point x="84" y="-322" type="curve" smooth="yes"/>
      <point x="20" y="-322" type="line"/>
      <point x="20" y="-130" type="line"/>
      <point x="80" y="-130" type="line" smooth="yes"/>
      <point x="202" y="-130"/>
      <point x="240" y="-104"/>
      <point x="240" y="-50" type="curve" smooth="yes"/>
      <point x="240" y="0" type="line"/>
      <point x="60" y="0" type="line"/>
    </contour>
    <contour>
      <point x="60" y="1000" type="line"/>
      <point x="296" y="1000" type="line"/>
      <point x="296" y="764" type="line"/>
      <point x="60" y="764" type="line"/>
    </contour>
  </outline>
</glyph>
<glyph name="less" format="2">
  <advance width="912"/>
  <unicode hex="003C"/>
  <outline>
    <contour>
      <point x="852" y="766" type="line"/>
      <point x="852" y="1000" type="line"/>
      <point x="60" y="608" type="line"/>
      <point x="60" y="494" type="line"/>
      <point x="852" y="102" type="line"/>
      <point x="852" y="336" type="line"/>
      <point x="399" y="551" type="line"/>
    </contour>
  </outline>
</glyph>
<glyph name="equal" format="2">
  <advance width="912"/>
  <unicode hex="003D"/>
  <outline>
    <contour>
      <point x="852" y="260" type="line"/>
      <point x="852" y="468" type="line"/>
      <point x="60" y="468" type="line"/>
      <point x="60" y="260" type="line"/>
    </contour>
    <contour>
      <point x="852" y="700" type="line"/>
      <point x="852" y="908" type="line"/>
      <point x="60" y="908" type="line"/>
      <point x="60" y="700" type="line"/>
    </contour>
  </outline>
</glyph>
<glyph name="greater" format="2">
  <advance width="912"/>
  <unicode hex="003E"/>
  <outline>
    <contour>
      <point x="60" y="766" type="line"/>
      <point x="513" y="551" type="line"/>
      <point x="60" y="336" type="line"/>
      <point x="60" y="102" type="line"/>
      <point x="852" y="494" type="line"/>
      <point x="852" y="608" type="line"/>
      <point x="60" y="1000" type="line"/>
    </contour>
  </outline>
</glyph>
<glyph name="question" format="2">
  <advance width="1096"/>
  <unicode hex="003F"/>
  <outline>
    <contour>
      <point x="752" y="174" type="line"/>
      <point x="560" y="-18" type="line"/>
      <point x="366" y="162" type="line"/>
      <point x="558" y="354" type="line"/>
    </contour>
    <contour>
      <point x="626" y="1310" type="curve" smooth="yes"/>
      <point x="866" y="1310"/>
      <point x="1026" y="1204"/>
      <point x="1026" y="1044" type="curve" smooth="yes"/>
      <point x="1026" y="943"/>
      <point x="969" y="840"/>
      <point x="864" y="776" type="curve" smooth="yes"/>
      <point x="660" y="656" type="line"/>
      <point x="986" y="656" type="line"/>
      <point x="848" y="416" type="line"/>
      <point x="202" y="416" type="line"/>
      <point x="348" y="656" type="line"/>
      <point x="526" y="702"/>
      <point x="677" y="761"/>
      <point x="790" y="832" type="curve"/>
      <point x="800" y="856"/>
      <point x="806" y="885"/>
      <point x="806" y="913" type="curve" smooth="yes"/>
      <point x="806" y="1014"/>
      <point x="698" y="1066"/>
      <point x="493" y="1066" type="curve" smooth="yes"/>
      <point x="350" y="1066"/>
      <point x="221" y="1037"/>
      <point x="60" y="970" type="curve"/>
      <point x="242" y="1250" type="line"/>
      <point x="392" y="1291"/>
      <point x="514" y="1310"/>
    </contour>
  </outline>
</glyph>
<glyph name="at" format="2">
  <advance width="1568"/>
  <unicode hex="0040"/>
  <outline>
    <contour>
      <point x="680" y="558" type="curve" smooth="yes"/>
      <point x="680" y="502"/>
      <point x="726" y="456"/>
      <point x="780" y="456" type="curve" smooth="yes"/>
      <point x="834" y="456"/>
      <point x="880" y="502"/>
      <point x="880" y="558" type="curve" smooth="yes"/>
      <point x="880" y="612"/>
      <point x="836" y="656"/>
      <point x="780" y="656" type="curve" smooth="yes"/>
      <point x="724" y="656"/>
      <point x="680" y="612"/>
    </contour>
    <contour>
      <point x="550" y="555" type="curve" smooth="yes"/>
      <point x="550" y="674"/>
      <point x="646" y="768"/>
      <point x="766" y="768" type="curve" smooth="yes"/>
      <point x="888" y="768"/>
      <point x="986" y="670"/>
      <point x="986" y="549" type="curve" smooth="yes"/>
      <point x="986" y="430"/>
      <point x="890" y="336"/>
      <point x="770" y="336" type="curve" smooth="yes"/>
      <point x="648" y="336"/>
      <point x="550" y="434"/>
    </contour>
    <contour>
      <point x="590" y="956" type="line"/>
      <point x="756" y="956" type="line"/>
      <point x="1138" y="478" type="line"/>
      <point x="1256" y="478"/>
      <point x="1324" y="562"/>
      <point x="1324" y="704" type="curve" smooth="yes"/>
      <point x="1324" y="972"/>
      <point x="1082" y="1188"/>
      <point x="792" y="1188" type="curve" smooth="yes"/>
      <point x="486" y="1188"/>
      <point x="244" y="946"/>
      <point x="244" y="648" type="curve" smooth="yes"/>
      <point x="244" y="350"/>
      <point x="486" y="108"/>
      <point x="784" y="108" type="curve" smooth="yes"/>
      <point x="920" y="108"/>
      <point x="1050" y="158"/>
      <point x="1148" y="248" type="curve"/>
      <point x="1242" y="144" type="line"/>
      <point x="1116" y="28"/>
      <point x="952" y="-36"/>
      <point x="782" y="-36" type="curve" smooth="yes"/>
      <point x="408" y="-36"/>
      <point x="100" y="272"/>
      <point x="100" y="648" type="curve" smooth="yes"/>
      <point x="100" y="1024"/>
      <point x="408" y="1332"/>
      <point x="793" y="1332" type="curve" smooth="yes"/>
      <point x="1160" y="1332"/>
      <point x="1468" y="1052"/>
      <point x="1468" y="713" type="curve" smooth="yes"/>
      <point x="1468" y="500"/>
      <point x="1346" y="352"/>
      <point x="1172" y="352" type="curve" smooth="yes"/>
      <point x="1074" y="352" type="line"/>
    </contour>
  </outline>
</glyph>
<glyph name="B" format="2">
  <advance width="1478"/>
  <unicode hex="0042"/>
  <outline>
    <contour>
      <point x="76" y="784" type="curve"/>
      <point x="224" y="784" type="line"/>
      <point x="224" y="918"/>
      <point x="288" y="982"/>
      <point x="424" y="988" type="curve"/>
      <point x="336" y="312" type="line"/>
      <point x="56" y="312" type="line"/>
      <point x="56" y="0" type="line"/>
      <point x="912" y="0" type="line" smooth="yes"/>
      <point x="1226" y="0"/>
      <point x="1404" y="136"/>
      <point x="1404" y="380" type="curve" smooth="yes"/>
      <point x="1404" y="536"/>
      <point x="1306" y="658"/>
      <point x="1156" y="690" type="curve"/>
      <point x="1318" y="724"/>
      <point x="1408" y="820"/>
      <point x="1408" y="956" type="curve" smooth="yes"/>
      <point x="1408" y="1158"/>
      <point x="1244" y="1300"/>
      <point x="1012" y="1300" type="curve" smooth="yes"/>
      <point x="436" y="1300" type="line" smooth="yes"/>
      <point x="204" y="1300"/>
      <point x="76" y="1116"/>
    </contour>
    <contour>
      <point x="574" y="988" type="line"/>
      <point x="1056" y="988" type="line" smooth="yes"/>
      <point x="1146" y="988"/>
      <point x="1194" y="948"/>
      <point x="1194" y="870" type="curve" smooth="yes"/>
      <point x="1194" y="782"/>
      <point x="1136" y="736"/>
      <point x="1020" y="736" type="curve" smooth="yes"/>
      <point x="542" y="736" type="line"/>
    </contour>
    <contour>
      <point x="522" y="588" type="line"/>
      <point x="1004" y="588" type="line" smooth="yes"/>
      <point x="1104" y="588"/>
      <point x="1162" y="540"/>
      <point x="1162" y="456" type="curve" smooth="yes"/>
      <point x="1162" y="356"/>
      <point x="1100" y="312"/>
      <point x="952" y="312" type="curve" smooth="yes"/>
      <point x="486" y="312" type="line"/>
    </contour>
  </outline>
</glyph>
<glyph name="C" format="2">
  <advance width="1272"/>
  <unicode hex="0043"/>
  <outline>
    <contour>
      <point x="1202" y="1300" type="line"/>
      <point x="1202" y="684" type="line"/>
      <point x="782" y="684" type="line"/>
      <point x="782" y="848" type="line"/>
      <point x="754" y="848" type="line" smooth="yes"/>
      <point x="616" y="848"/>
      <point x="530" y="777"/>
      <point x="530" y="662" type="curve" smooth="yes"/>
      <point x="530" y="541"/>
      <point x="625" y="452"/>
      <point x="754" y="452" type="curve" smooth="yes"/>
      <point x="1202" y="452" type="line"/>
      <point x="1202" y="0" type="line"/>
      <point x="774" y="0" type="line" smooth="yes"/>
      <point x="357" y="0"/>
      <point x="70" y="270"/>
      <point x="70" y="662" type="curve" smooth="yes"/>
      <point x="70" y="1054"/>
      <point x="341" y="1300"/>
      <point x="774" y="1300" type="curve" smooth="yes"/>
    </contour>
    <contour>
      <point x="1042" y="844" type="line"/>
      <point x="1042" y="1140" type="line"/>
      <point x="778" y="1140" type="line" smooth="yes"/>
      <point x="442" y="1140"/>
      <point x="230" y="955"/>
      <point x="230" y="662" type="curve" smooth="yes"/>
      <point x="230" y="364"/>
      <point x="453" y="160"/>
      <point x="778" y="160" type="curve" smooth="yes"/>
      <point x="1042" y="160" type="line"/>
      <point x="1042" y="284" type="line"/>
      <point x="750" y="284" type="line" smooth="yes"/>
      <point x="534" y="284"/>
      <point x="362" y="451"/>
      <point x="362" y="662" type="curve" smooth="yes"/>
      <point x="362" y="870"/>
      <point x="522" y="1016"/>
      <point x="750" y="1016" type="curve" smooth="yes"/>
      <point x="942" y="1016" type="line"/>
      <point x="942" y="844" type="line"/>
    </contour>
  </outline>
</glyph>
<glyph name="F" format="2">
  <advance width="1212"/>
  <unicode hex="0046"/>
  <outline>
    <contour>
      <point x="66" y="762" type="line"/>
      <point x="224" y="1270" type="line"/>
      <point x="1146" y="1270" type="line"/>
      <point x="1228" y="1386" type="line"/>
      <point x="1300" y="1386" type="line"/>
      <point x="1202" y="1044" type="line"/>
      <point x="570" y="1044" type="line"/>
      <point x="478" y="722" type="line"/>
      <point x="476" y="722" type="line"/>
      <point x="528" y="672" type="line"/>
      <point x="884" y="672" type="line"/>
      <point x="986" y="822" type="line"/>
      <point x="1058" y="822" type="line"/>
      <point x="934" y="346" type="line"/>
      <point x="852" y="346" type="line"/>
      <point x="854" y="476" type="line"/>
      <point x="804" y="526" type="line"/>
      <point x="422" y="526" type="line"/>
      <point x="276" y="20" type="line"/>
      <point x="196" y="20" type="line"/>
      <point x="484" y="994" type="line"/>
      <point x="444" y="1044" type="line"/>
      <point x="302" y="1044" type="line"/>
      <point x="126" y="762" type="line"/>
    </contour>
    <contour>
      <point x="80" y="692" type="line"/>
      <point x="196" y="692" type="line"/>
      <point x="372" y="974" type="line"/>
      <point x="450" y="974" type="line"/>
      <point x="162" y="0" type="line"/>
      <point x="212" y="-50" type="line"/>
      <point x="346" y="-50" type="line"/>
      <point x="492" y="456" type="line"/>
      <point x="822" y="456" type="line"/>
      <point x="820" y="326" type="line"/>
      <point x="870" y="276" type="line"/>
      <point x="1004" y="276" type="line"/>
      <point x="1142" y="802" type="line"/>
      <point x="1092" y="852" type="line"/>
      <point x="966" y="852" type="line"/>
      <point x="864" y="702" type="line"/>
      <point x="562" y="702" type="line"/>
      <point x="640" y="974" type="line"/>
      <point x="1272" y="974" type="line"/>
      <point x="1384" y="1366" type="line"/>
      <point x="1334" y="1416" type="line"/>
      <point x="1208" y="1416" type="line"/>
      <point x="1126" y="1300" type="line"/>
      <point x="204" y="1300" type="line"/>
      <point x="30" y="742" type="line"/>
    </contour>
  </outline>
</glyph>
<glyph name="G" format="2">
  <advance width="1482"/>
  <unicode hex="0047"/>
  <outline>
    <contour>
      <point x="1468" y="496" type="line"/>
      <point x="1240" y="514" type="line"/>
      <point x="1246" y="-168" type="line"/>
      <point x="1060" y="-236" type="line"/>
      <point x="1070" y="340" type="line"/>
      <point x="973" y="70"/>
      <point x="777" y="-22"/>
      <point x="564" y="-22" type="curve" smooth="yes"/>
      <point x="255" y="-22"/>
      <point x="60" y="178"/>
      <point x="60" y="496" type="curve" smooth="yes"/>
      <point x="60" y="938"/>
      <point x="430" y="1318"/>
      <point x="860" y="1318" type="curve" smooth="yes"/>
      <point x="1018" y="1318"/>
      <point x="1166" y="1272"/>
      <point x="1372" y="1160" type="curve"/>
      <point x="1290" y="1008" type="line"/>
      <point x="1086" y="1114"/>
      <point x="924" y="1158"/>
      <point x="754" y="1158" type="curve" smooth="yes"/>
      <point x="416" y="1158"/>
      <point x="224" y="947"/>
      <point x="224" y="582" type="curve" smooth="yes"/>
      <point x="224" y="302"/>
      <point x="411" y="142"/>
      <point x="630" y="142" type="curve" smooth="yes"/>
      <point x="839" y="142"/>
      <point x="968" y="238"/>
      <point x="1062" y="516" type="curve"/>
      <point x="584" y="526" type="line"/>
      <point x="608" y="686" type="line"/>
      <point x="1488" y="658" type="line"/>
    </contour>
  </outline>
</glyph>
<glyph name="H" format="2">
  <advance width="1520"/>
  <unicode hex="0048"/>
  <outline>
    <contour>
      <point x="156" y="1300" type="line"/>
      <point x="280" y="1300" type="line" smooth="yes"/>
      <point x="653" y="1300"/>
      <point x="772" y="1160"/>
      <point x="772" y="717" type="curve" smooth="yes"/>
      <point x="772" y="224"/>
      <point x="624" y="-28"/>
      <point x="334" y="-28" type="curve" smooth="yes"/>
      <point x="140" y="-28"/>
      <point x="20" y="85"/>
      <point x="20" y="266" type="curve" smooth="yes"/>
      <point x="20" y="768"/>
      <point x="1024" y="615"/>
      <point x="1074" y="1032" type="curve" smooth="yes"/>
      <point x="1106" y="1300" type="line"/>
      <point x="1318" y="1300" type="line"/>
      <point x="1246" y="516" type="line" smooth="yes"/>
      <point x="1233" y="370"/>
      <point x="1287" y="312"/>
      <point x="1438" y="312" type="curve" smooth="yes"/>
      <point x="1534" y="312" type="line"/>
      <point x="1514" y="0" type="line"/>
      <point x="1442" y="0" type="line" smooth="yes"/>
      <point x="1105" y="0"/>
      <point x="969" y="192"/>
      <point x="1026" y="584" type="curve" smooth="yes"/>
      <point x="1052" y="762" type="line"/>
      <point x="868" y="520"/>
      <point x="304" y="546"/>
      <point x="304" y="341" type="curve" smooth="yes"/>
      <point x="304" y="281"/>
      <point x="347" y="244"/>
      <point x="415" y="244" type="curve" smooth="yes"/>
      <point x="538" y="244"/>
      <point x="604" y="367"/>
      <point x="604" y="596" type="curve" smooth="yes"/>
      <point x="604" y="881"/>
      <point x="501" y="988"/>
      <point x="228" y="988" type="curve" smooth="yes"/>
      <point x="128" y="988" type="line"/>
    </contour>
  </outline>
</glyph>
<glyph name="I" format="2">
  <advance width="1140"/>
  <unicode hex="0049"/>
  <outline>
    <contour>
      <point x="30" y="1300" type="line"/>
      <point x="1110" y="1300" type="line"/>
      <point x="1110" y="680" type="line"/>
      <point x="790" y="680" type="line"/>
      <point x="790" y="1020" type="line"/>
      <point x="630" y="1020" type="line"/>
      <point x="630" y="960" type="line"/>
      <point x="730" y="960" type="line"/>
      <point x="730" y="340" type="line"/>
      <point x="630" y="340" type="line"/>
      <point x="630" y="280" type="line"/>
      <point x="790" y="280" type="line"/>
      <point x="790" y="620" type="line"/>
      <point x="1110" y="620" type="line"/>
      <point x="1110" y="0" type="line"/>
      <point x="30" y="0" type="line"/>
      <point x="30" y="620" type="line"/>
      <point x="350" y="620" type="line"/>
      <point x="350" y="280" type="line"/>
      <point x="510" y="280" type="line"/>
      <point x="510" y="340" type="line"/>
      <point x="410" y="340" type="line"/>
      <point x="410" y="960" type="line"/>
      <point x="510" y="960" type="line"/>
      <point x="510" y="1020" type="line"/>
      <point x="350" y="1020" type="line"/>
      <point x="350" y="680" type="line"/>
      <point x="30" y="680" type="line"/>
    </contour>
  </outline>
</glyph>
<glyph name="J" format="2">
  <advance width="940"/>
  <unicode hex="004A"/>
  <outline>
    <contour>
      <point x="56" y="1300" type="line"/>
      <point x="128" y="1300" type="line"/>
      <point x="177" y="1179"/>
      <point x="238" y="1138"/>
      <point x="368" y="1138" type="curve" smooth="yes"/>
      <point x="502" y="1138"/>
      <point x="607" y="1182"/>
      <point x="756" y="1300" type="curve"/>
      <point x="880" y="1300" type="line"/>
      <point x="880" y="862" type="line" smooth="yes"/>
      <point x="880" y="206"/>
      <point x="784" y="-6"/>
      <point x="486" y="-6" type="curve" smooth="yes"/>
      <point x="219" y="-6"/>
      <point x="81" y="164"/>
      <point x="40" y="542" type="curve"/>
      <point x="78" y="548" type="line"/>
      <point x="116" y="343"/>
      <point x="236" y="250"/>
      <point x="460" y="250" type="curve" smooth="yes"/>
      <point x="711" y="250"/>
      <point x="832" y="365"/>
      <point x="832" y="603" type="curve" smooth="yes"/>
      <point x="832" y="744"/>
      <point x="789" y="898"/>
      <point x="728" y="980" type="curve"/>
      <point x="838" y="1008" type="line"/>
      <point x="838" y="1042" type="line"/>
      <point x="720" y="1006"/>
      <point x="615" y="988"/>
      <point x="525" y="988" type="curve" smooth="yes"/>
      <point x="339" y="988"/>
      <point x="193" y="1066"/>
      <point x="128" y="1200" type="curve"/>
      <point x="100" y="1200" type="line"/>
      <point x="362" y="722" type="line"/>
      <point x="108" y="642" type="line"/>
    </contour>
  </outline>
</glyph>
<glyph name="L" format="2">
  <advance width="970"/>
  <unicode hex="004C"/>
  <outline>
    <contour>
      <point x="538" y="294" type="curve" smooth="yes"/>
      <point x="786" y="294"/>
      <point x="744" y="-156"/>
      <point x="938" y="-156" type="curve" smooth="yes"/>
      <point x="986" y="-156"/>
      <point x="1021" y="-128"/>
      <point x="1052" y="-46" type="curve"/>
      <point x="1088" y="-58" type="line"/>
      <point x="1049" y="-179"/>
      <point x="986" y="-232"/>
      <point x="888" y="-232" type="curve" smooth="yes"/>
      <point x="612" y="-232"/>
      <point x="694" y="194"/>
      <point x="484" y="194" type="curve" smooth="yes"/>
      <point x="410" y="194"/>
      <point x="334" y="142"/>
      <point x="194" y="-16" type="curve"/>
      <point x="60" y="126" type="line"/>
      <point x="480" y="517"/>
      <point x="604" y="709"/>
      <point x="604" y="935" type="curve" smooth="yes"/>
      <point x="604" y="1147"/>
      <point x="495" y="1246"/>
      <point x="358" y="1246" type="curve" smooth="yes"/>
      <point x="208" y="1246"/>
      <point x="110" y="1126"/>
      <point x="110" y="983" type="curve" smooth="yes"/>
      <point x="110" y="839"/>
      <point x="240" y="716"/>
      <point x="445" y="716" type="curve" smooth="yes"/>
      <point x="690" y="716"/>
      <point x="831" y="845"/>
      <point x="886" y="1168" type="curve"/>
      <point x="998" y="1148" type="line"/>
      <point x="919" y="797"/>
      <point x="753" y="658"/>
      <point x="488" y="658" type="curve" smooth="yes"/>
      <point x="228" y="658"/>
      <point x="56" y="798"/>
      <point x="56" y="987" type="curve" smooth="yes"/>
      <point x="56" y="1162"/>
      <point x="200" y="1318"/>
      <point x="402" y="1318" type="curve" smooth="yes"/>
      <point x="610" y="1318"/>
      <point x="728" y="1151"/>
      <point x="728" y="926" type="curve" smooth="yes"/>
      <point x="728" y="697"/>
      <point x="606" y="508"/>
      <point x="190" y="94" type="curve"/>
      <point x="214" y="70" type="line"/>
      <point x="382" y="244"/>
      <point x="456" y="294"/>
    </contour>
  </outline>
</glyph>
<glyph name="M" format="2">
  <advance width="1500"/>
  <unicode hex="004D"/>
  <outline>
    <contour>
      <point x="1068" y="1300" type="line"/>
      <point x="1460" y="1300" type="line"/>
      <point x="1460" y="0" type="line"/>
      <point x="1046" y="0" type="line"/>
      <point x="1046" y="431"/>
      <point x="982" y="778"/>
      <point x="850" y="1060" type="curve"/>
    </contour>
    <contour>
      <point x="236" y="988" type="curve"/>
      <point x="188" y="938" type="line"/>
      <point x="417" y="686"/>
      <point x="468" y="437"/>
      <point x="468" y="0" type="curve"/>
      <point x="40" y="0" type="line"/>
      <point x="40" y="1300" type="line"/>
      <point x="368" y="1300" type="line" smooth="yes"/>
      <point x="737" y="1300"/>
      <point x="968" y="799"/>
      <point x="968" y="0" type="curve"/>
      <point x="544" y="0" type="line"/>
      <point x="544" y="390"/>
      <point x="490" y="732"/>
    </contour>
  </outline>
</glyph>
<glyph name="N" format="2">
  <advance width="1668"/>
  <unicode hex="004E"/>
  <outline>
    <contour>
      <point x="60" y="710" type="line"/>
      <point x="60" y="1134"/>
      <point x="159" y="1316"/>
      <point x="406" y="1316" type="curve" smooth="yes"/>
      <point x="853" y="1316"/>
      <point x="763" y="626"/>
      <point x="1324" y="625" type="curve"/>
      <point x="1324" y="712" type="line"/>
      <point x="921" y="718"/>
      <point x="925" y="1168"/>
      <point x="672" y="1300" type="curve"/>
      <point x="1608" y="1300" type="line"/>
      <point x="1608" y="934"/>
      <point x="1566" y="764"/>
      <point x="1424" y="719" type="curve"/>
      <point x="1424" y="621" type="line"/>
      <point x="1474" y="620"/>
      <point x="1529" y="620"/>
      <point x="1588" y="620" type="curve"/>
      <point x="1588" y="0" type="line"/>
      <point x="1576" y="0" type="line" smooth="yes"/>
      <point x="707" y="0"/>
      <point x="866" y="583"/>
      <point x="350" y="682" type="curve"/>
      <point x="350" y="586" type="line"/>
      <point x="668" y="543"/>
      <point x="685" y="160"/>
      <point x="1094" y="0" type="curve"/>
      <point x="60" y="0" type="line"/>
      <point x="60" y="392"/>
      <point x="109" y="557"/>
      <point x="250" y="586" type="curve"/>
      <point x="250" y="699" type="line"/>
      <point x="201" y="706"/>
      <point x="147" y="710"/>
      <point x="86" y="710" type="curve" smooth="yes"/>
    </contour>
  </outline>
</glyph>
<glyph name="O" format="2">
  <advance width="1196"/>
  <unicode hex="004F"/>
  <outline>
    <contour>
      <point x="654" y="1322" type="curve" smooth="yes"/>
      <point x="833" y="1322"/>
      <point x="960" y="1215"/>
      <point x="960" y="1063" type="curve" smooth="yes"/>
      <point x="960" y="940"/>
      <point x="877" y="852"/>
      <point x="762" y="852" type="curve" smooth="yes"/>
      <point x="569" y="852"/>
      <point x="551" y="1104"/>
      <point x="358" y="1104" type="curve" smooth="yes"/>
      <point x="241" y="1104"/>
      <point x="172" y="1010"/>
      <point x="172" y="852" type="curve" smooth="yes"/>
      <point x="172" y="584"/>
      <point x="360" y="406"/>
      <point x="643" y="406" type="curve" smooth="yes"/>
      <point x="886" y="406"/>
      <point x="1040" y="538"/>
      <point x="1040" y="749" type="curve" smooth="yes"/>
      <point x="1040" y="833"/>
      <point x="1014" y="911"/>
      <point x="960" y="986" type="curve"/>
      <point x="978" y="998" type="line"/>
      <point x="1082" y="877"/>
      <point x="1136" y="722"/>
      <point x="1136" y="542" type="curve" smooth="yes"/>
      <point x="1136" y="195"/>
      <point x="936" y="-20"/>
      <point x="615" y="-20" type="curve" smooth="yes"/>
      <point x="279" y="-20"/>
      <point x="60" y="216"/>
      <point x="60" y="576" type="curve" smooth="yes"/>
      <point x="60" y="978"/>
      <point x="333" y="1322"/>
    </contour>
  </outline>
</glyph>
<glyph name="P" format="2">
  <advance width="1220"/>
  <unicode hex="0050"/>
  <outline>
    <contour>
      <point x="942" y="1120" type="line"/>
      <point x="813" y="1023"/>
      <point x="756" y="929"/>
      <point x="714" y="736" type="curve" smooth="yes"/>
      <point x="636" y="376" type="line" smooth="yes"/>
      <point x="587" y="151"/>
      <point x="482" y="40"/>
      <point x="318" y="40" type="curve" smooth="yes"/>
      <point x="147" y="40"/>
      <point x="24" y="161"/>
      <point x="24" y="329" type="curve" smooth="yes"/>
      <point x="24" y="526"/>
      <point x="192" y="686"/>
      <point x="397" y="686" type="curve" smooth="yes"/>
      <point x="499" y="686"/>
      <point x="570" y="647"/>
      <point x="570" y="591" type="curve" smooth="yes"/>
      <point x="570" y="546"/>
      <point x="523" y="512"/>
      <point x="459" y="512" type="curve" smooth="yes"/>
      <point x="336" y="512"/>
      <point x="244" y="634"/>
      <point x="244" y="797" type="curve" smooth="yes"/>
      <point x="244" y="1056"/>
      <point x="482" y="1252"/>
      <point x="799" y="1252" type="curve" smooth="yes"/>
      <point x="1075" y="1252"/>
      <point x="1260" y="1107"/>
      <point x="1260" y="892" type="curve" smooth="yes"/>
      <point x="1260" y="704"/>
      <point x="1120" y="540"/>
      <point x="959" y="540" type="curve" smooth="yes"/>
      <point x="911" y="540"/>
      <point x="872" y="554"/>
      <point x="834" y="586" type="curve"/>
      <point x="828" y="580" type="line"/>
      <point x="886" y="523"/>
      <point x="939" y="498"/>
      <point x="1004" y="498" type="curve" smooth="yes"/>
      <point x="1164" y="498"/>
      <point x="1276" y="642"/>
      <point x="1276" y="845" type="curve" smooth="yes"/>
      <point x="1276" y="1115"/>
      <point x="1064" y="1308"/>
      <point x="767" y="1308" type="curve" smooth="yes"/>
      <point x="461" y="1308"/>
      <point x="232" y="1098"/>
      <point x="232" y="818" type="curve" smooth="yes"/>
      <point x="232" y="635"/>
      <point x="329" y="502"/>
      <point x="461" y="502" type="curve" smooth="yes"/>
      <point x="535" y="502"/>
      <point x="584" y="543"/>
      <point x="584" y="605" type="curve" smooth="yes"/>
      <point x="584" y="685"/>
      <point x="515" y="736"/>
      <point x="406" y="736" type="curve" smooth="yes"/>
      <point x="193" y="736"/>
      <point x="16" y="551"/>
      <point x="16" y="328" type="curve" smooth="yes"/>
      <point x="16" y="136"/>
      <point x="153" y="-4"/>
      <point x="341" y="-4" type="curve" smooth="yes"/>
      <point x="523" y="-4"/>
      <point x="650" y="127"/>
      <point x="698" y="364" type="curve" smooth="yes"/>
      <point x="774" y="740" type="line" smooth="yes"/>
      <point x="815" y="942"/>
      <point x="859" y="1036"/>
      <point x="948" y="1114" type="curve"/>
    </contour>
  </outline>
</glyph>
<glyph name="Q" format="2">
  <advance width="1428"/>
  <unicode hex="0051"/>
  <outline>
    <contour>
      <point x="100" y="590" type="curve" smooth="yes"/>
      <point x="100" y="979"/>
      <point x="422" y="1322"/>
      <point x="786" y="1322" type="curve" smooth="yes"/>
      <point x="1095" y="1322"/>
      <point x="1324" y="1079"/>
      <point x="1324" y="750" type="curve" smooth="yes"/>
      <point x="1324" y="361"/>
      <point x="1002" y="18"/>
      <point x="638" y="18" type="curve" smooth="yes"/>
      <point x="329" y="18"/>
      <point x="100" y="261"/>
    </contour>
    <contour>
      <point x="578" y="1148" type="curve" smooth="yes"/>
      <point x="337" y="1148"/>
      <point x="168" y="1001"/>
      <point x="168" y="792" type="curve" smooth="yes"/>
      <point x="168" y="491"/>
      <point x="505" y="192"/>
      <point x="846" y="192" type="curve" smooth="yes"/>
      <point x="1087" y="192"/>
      <point x="1256" y="339"/>
      <point x="1256" y="548" type="curve" smooth="yes"/>
      <point x="1256" y="849"/>
      <point x="919" y="1148"/>
    </contour>
    <contour>
      <point x="225" y="-180" type="line"/>
      <point x="366" y="-101"/>
      <point x="445" y="-76"/>
      <point x="548" y="-76" type="curve" smooth="yes"/>
      <point x="756" y="-76"/>
      <point x="830" y="-188"/>
      <point x="1038" y="-188" type="curve" smooth="yes"/>
      <point x="1200" y="-188"/>
      <point x="1300" y="-116"/>
      <point x="1330" y="16" type="curve"/>
      <point x="1340" y="16" type="line"/>
      <point x="1281" y="-285"/>
      <point x="1172" y="-420"/>
      <point x="986" y="-420" type="curve" smooth="yes"/>
      <point x="770" y="-420"/>
      <point x="677" y="-196"/>
      <point x="420" y="-196" type="curve" smooth="yes"/>
      <point x="322" y="-196"/>
      <point x="209" y="-232"/>
      <point x="88" y="-300" type="curve"/>
      <point x="86" y="-294" type="line"/>
      <point x="506" y="86" type="line"/>
      <point x="526" y="58" type="line"/>
    </contour>
  </outline>
</glyph>
<glyph name="R" format="2">
  <advance width="1014"/>
  <unicode hex="0052"/>
  <outline>
    <contour>
      <point x="692" y="662" type="line"/>
      <point x="692" y="1014" type="line"/>
      <point x="626" y="1080" type="line"/>
      <point x="80" y="1080" type="line"/>
      <point x="80" y="1300" type="line"/>
      <point x="746" y="1300" type="line"/>
      <point x="936" y="1114" type="line"/>
      <point x="936" y="830" type="line"/>
      <point x="766" y="662" type="line"/>
    </contour>
    <contour>
      <point x="80" y="1020" type="line"/>
      <point x="324" y="1020" type="line"/>
      <point x="324" y="0" type="line"/>
      <point x="80" y="0" type="line"/>
    </contour>
    <contour>
      <point x="384" y="602" type="line"/>
      <point x="766" y="602" type="line"/>
      <point x="994" y="72" type="line"/>
      <point x="994" y="0" type="line"/>
      <point x="774" y="0" type="line"/>
      <point x="604" y="382" type="line"/>
      <point x="384" y="382" type="line"/>
    </contour>
  </outline>
</glyph>
<glyph name="S" format="2">
  <advance width="1126"/>
  <unicode hex="0053"/>
  <outline>
    <contour>
      <point x="1012" y="1300" type="curve"/>
      <point x="958" y="804" type="line"/>
      <point x="852" y="1064"/>
      <point x="644" y="1266"/>
      <point x="488" y="1266" type="curve" smooth="yes"/>
      <point x="430" y="1266"/>
      <point x="406" y="1240"/>
      <point x="406" y="1187" type="curve" smooth="yes"/>
      <point x="406" y="910"/>
      <point x="1056" y="766"/>
      <point x="1056" y="369" type="curve" smooth="yes"/>
      <point x="1056" y="134"/>
      <point x="827" y="-24"/>
      <point x="418" y="-24" type="curve" smooth="yes"/>
      <point x="306" y="-24"/>
      <point x="162" y="-14"/>
      <point x="50" y="0" type="curve"/>
      <point x="190" y="508" type="line"/>
      <point x="290" y="254"/>
      <point x="511" y="58"/>
      <point x="687" y="58" type="curve" smooth="yes"/>
      <point x="748" y="58"/>
      <point x="776" y="80"/>
      <point x="776" y="128" type="curve" smooth="yes"/>
      <point x="776" y="370"/>
      <point x="90" y="588"/>
      <point x="90" y="970" type="curve" smooth="yes"/>
      <point x="90" y="1188"/>
      <point x="312" y="1320"/>
      <point x="683" y="1320" type="curve" smooth="yes"/>
      <point x="765" y="1320"/>
      <point x="866" y="1314"/>
    </contour>
  </outline>
</glyph>
<glyph name="T" format="2">
  <advance width="1288"/>
  <unicode hex="0054"/>
  <outline>
    <contour>
      <point x="526" y="930" type="curve"/>
      <point x="520" y="942" type="line"/>
      <point x="331" y="827"/>
      <point x="226" y="651"/>
      <point x="226" y="448" type="curve" smooth="yes"/>
      <point x="226" y="184"/>
      <point x="444" y="-36"/>
      <point x="758" y="-36" type="curve" smooth="yes"/>
      <point x="1052" y="-36"/>
      <point x="1238" y="172"/>
      <point x="1238" y="502" type="curve" smooth="yes"/>
      <point x="1238" y="593"/>
      <point x="1223" y="654"/>
      <point x="1182" y="732" type="curve"/>
      <point x="1166" y="724" type="line"/>
      <point x="1194" y="666"/>
      <point x="1206" y="618"/>
      <point x="1206" y="563" type="curve" smooth="yes"/>
      <point x="1206" y="398"/>
      <point x="1098" y="308"/>
      <point x="901" y="308" type="curve" smooth="yes"/>
      <point x="632" y="308"/>
      <point x="446" y="475"/>
      <point x="446" y="717" type="curve" smooth="yes"/>
      <point x="446" y="805"/>
      <point x="471" y="871"/>
    </contour>
    <contour>
      <point x="800" y="830" type="line"/>
      <point x="633" y="790"/>
      <point x="532" y="716"/>
      <point x="532" y="633" type="curve" smooth="yes"/>
      <point x="532" y="474"/>
      <point x="824" y="443"/>
      <point x="824" y="360" type="curve" smooth="yes"/>
      <point x="824" y="332"/>
      <point x="812" y="315"/>
      <point x="784" y="304" type="curve"/>
      <point x="804" y="304" type="line"/>
      <point x="975" y="358"/>
      <point x="1076" y="439"/>
      <point x="1076" y="523" type="curve" smooth="yes"/>
      <point x="1076" y="686"/>
      <point x="784" y="705"/>
      <point x="784" y="785" type="curve" smooth="yes"/>
      <point x="784" y="807"/>
      <point x="791" y="818"/>
      <point x="816" y="830" type="curve"/>
    </contour>
    <contour>
      <point x="282" y="556" type="curve"/>
      <point x="286" y="566" type="line"/>
      <point x="177" y="631"/>
      <point x="122" y="707"/>
      <point x="122" y="793" type="curve" smooth="yes"/>
      <point x="122" y="896"/>
      <point x="200" y="948"/>
      <point x="355" y="948" type="curve" smooth="yes"/>
      <point x="567" y="948"/>
      <point x="691" y="814"/>
      <point x="903" y="814" type="curve" smooth="yes"/>
      <point x="1146" y="814"/>
      <point x="1288" y="933"/>
      <point x="1288" y="1136" type="curve" smooth="yes"/>
      <point x="1288" y="1256"/>
      <point x="1241" y="1328"/>
      <point x="1163" y="1328" type="curve" smooth="yes"/>
      <point x="1131" y="1328"/>
      <point x="1098" y="1318"/>
      <point x="1046" y="1292" type="curve"/>
      <point x="1054" y="1278" type="line"/>
      <point x="1091" y="1298"/>
      <point x="1130" y="1310"/>
      <point x="1159" y="1310" type="curve" smooth="yes"/>
      <point x="1204" y="1310"/>
      <point x="1230" y="1286"/>
      <point x="1230" y="1245" type="curve" smooth="yes"/>
      <point x="1230" y="1202"/>
      <point x="1182" y="1176"/>
      <point x="1100" y="1176" type="curve" smooth="yes"/>
      <point x="857" y="1176"/>
      <point x="709" y="1316"/>
      <point x="466" y="1316" type="curve" smooth="yes"/>
      <point x="207" y="1316"/>
      <point x="50" y="1163"/>
      <point x="50" y="912" type="curve" smooth="yes"/>
      <point x="50" y="738"/>
      <point x="126" y="622"/>
    </contour>
  </outline>
</glyph>
<glyph name="U" format="2">
  <advance width="1328"/>
  <unicode hex="0055"/>
  <outline>
    <contour>
      <point x="1052" y="1078" type="line" smooth="yes"/>
      <point x="1024" y="1106" type="line" smooth="yes"/>
      <point x="1200" y="1280" type="line"/>
      <point x="1228" y="1252" type="line"/>
    </contour>
    <contour>
      <point x="1044" y="1078" type="line" smooth="yes"/>
      <point x="868" y="1252" type="line"/>
      <point x="896" y="1280" type="line"/>
      <point x="1072" y="1106" type="line" smooth="yes"/>
    </contour>
    <contour>
      <point x="284" y="1078" type="line" smooth="yes"/>
      <point x="256" y="1106" type="line" smooth="yes"/>
      <point x="432" y="1280" type="line"/>
      <point x="460" y="1252" type="line"/>
    </contour>
    <contour>
      <point x="276" y="1078" type="line" smooth="yes"/>
      <point x="100" y="1252" type="line"/>
      <point x="128" y="1280" type="line"/>
      <point x="304" y="1106" type="line" smooth="yes"/>
    </contour>
    <contour>
      <point x="664" y="190" type="curve" smooth="yes"/>
      <point x="886" y="190"/>
      <point x="1028" y="346"/>
      <point x="1028" y="590" type="curve" smooth="yes"/>
      <point x="1028" y="1120" type="line"/>
      <point x="1068" y="1120" type="line"/>
      <point x="1068" y="590" type="line" smooth="yes"/>
      <point x="1068" y="324"/>
      <point x="909" y="150"/>
      <point x="664" y="150" type="curve" smooth="yes"/>
      <point x="419" y="150"/>
      <point x="260" y="322"/>
      <point x="260" y="590" type="curve" smooth="yes"/>
      <point x="260" y="1120" type="line"/>
      <point x="300" y="1120" type="line"/>
      <point x="300" y="590" type="line" smooth="yes"/>
      <point x="300" y="344"/>
      <point x="441" y="190"/>
    </contour>
    <contour>
      <point x="664" y="360" type="curve" smooth="yes"/>
      <point x="784" y="360"/>
      <point x="848" y="440"/>
      <point x="848" y="590" type="curve" smooth="yes"/>
      <point x="848" y="1300" type="line"/>
      <point x="1248" y="1300" type="line"/>
      <point x="1248" y="590" type="line" smooth="yes"/>
      <point x="1248" y="230"/>
      <point x="1007" y="-20"/>
      <point x="664" y="-20" type="curve" smooth="yes"/>
      <point x="318" y="-20"/>
      <point x="80" y="230"/>
      <point x="80" y="590" type="curve" smooth="yes"/>
      <point x="80" y="1300" type="line"/>
      <point x="480" y="1300" type="line"/>
      <point x="480" y="590" type="line" smooth="yes"/>
      <point x="480" y="438"/>
      <point x="543" y="360"/>
    </contour>
    <contour>
      <point x="664" y="20" type="curve" smooth="yes"/>
      <point x="985" y="20"/>
      <point x="1208" y="252"/>
      <point x="1208" y="590" type="curve" smooth="yes"/>
      <point x="1208" y="1262" type="line"/>
      <point x="888" y="1262" type="line"/>
      <point x="888" y="590" type="line" smooth="yes"/>
      <point x="888" y="418"/>
      <point x="807" y="320"/>
      <point x="664" y="320" type="curve" smooth="yes"/>
      <point x="520" y="320"/>
      <point x="440" y="416"/>
      <point x="440" y="590" type="curve" smooth="yes"/>
      <point x="440" y="1262" type="line"/>
      <point x="120" y="1262" type="line"/>
      <point x="120" y="590" type="line" smooth="yes"/>
      <point x="120" y="252"/>
      <point x="341" y="20"/>
    </contour>
  </outline>
</glyph>
<glyph name="V" format="2">
  <advance width="1372"/>
  <unicode hex="0056"/>
  <outline>
    <contour>
      <point x="1212" y="1170" type="curve" smooth="yes"/>
      <point x="1240" y="1170"/>
      <point x="1262" y="1192"/>
      <point x="1262" y="1220" type="curve" smooth="yes"/>
      <point x="1262" y="1248"/>
      <point x="1240" y="1270"/>
      <point x="1212" y="1270" type="curve" smooth="yes"/>
      <point x="1184" y="1270"/>
      <point x="1162" y="1248"/>
      <point x="1162" y="1220" type="curve" smooth="yes"/>
      <point x="1162" y="1192"/>
      <point x="1184" y="1170"/>
    </contour>
    <contour>
      <point x="686" y="30" type="curve" smooth="yes"/>
      <point x="714" y="30"/>
      <point x="736" y="52"/>
      <point x="736" y="80" type="curve" smooth="yes"/>
      <point x="736" y="108"/>
      <point x="714" y="130"/>
      <point x="686" y="130" type="curve" smooth="yes"/>
      <point x="658" y="130"/>
      <point x="636" y="108"/>
      <point x="636" y="80" type="curve" smooth="yes"/>
      <point x="636" y="52"/>
      <point x="658" y="30"/>
    </contour>
    <contour>
      <point x="160" y="1170" type="curve" smooth="yes"/>
      <point x="188" y="1170"/>
      <point x="210" y="1192"/>
      <point x="210" y="1220" type="curve" smooth="yes"/>
      <point x="210" y="1248"/>
      <point x="188" y="1270"/>
      <point x="160" y="1270" type="curve" smooth="yes"/>
      <point x="132" y="1270"/>
      <point x="110" y="1248"/>
      <point x="110" y="1220" type="curve" smooth="yes"/>
      <point x="110" y="1192"/>
      <point x="132" y="1170"/>
    </contour>
    <contour>
      <point x="598" y="220" type="curve" smooth="yes"/>
      <point x="626" y="220"/>
      <point x="648" y="242"/>
      <point x="648" y="270" type="curve" smooth="yes"/>
      <point x="648" y="298"/>
      <point x="626" y="320"/>
      <point x="598" y="320" type="curve" smooth="yes"/>
      <point x="570" y="320"/>
      <point x="548" y="298"/>
      <point x="548" y="270" type="curve" smooth="yes"/>
      <point x="548" y="242"/>
      <point x="570" y="220"/>
    </contour>
    <contour>
      <point x="512" y="410" type="curve" smooth="yes"/>
      <point x="540" y="410"/>
      <point x="562" y="432"/>
      <point x="562" y="460" type="curve" smooth="yes"/>
      <point x="562" y="488"/>
      <point x="540" y="510"/>
      <point x="512" y="510" type="curve" smooth="yes"/>
      <point x="484" y="510"/>
      <point x="462" y="488"/>
      <point x="462" y="460" type="curve" smooth="yes"/>
      <point x="462" y="432"/>
      <point x="484" y="410"/>
    </contour>
    <contour>
      <point x="422" y="600" type="curve" smooth="yes"/>
      <point x="450" y="600"/>
      <point x="472" y="622"/>
      <point x="472" y="650" type="curve" smooth="yes"/>
      <point x="472" y="678"/>
      <point x="450" y="700"/>
      <point x="422" y="700" type="curve" smooth="yes"/>
      <point x="394" y="700"/>
      <point x="372" y="678"/>
      <point x="372" y="650" type="curve" smooth="yes"/>
      <point x="372" y="622"/>
      <point x="394" y="600"/>
    </contour>
    <contour>
      <point x="336" y="790" type="curve" smooth="yes"/>
      <point x="364" y="790"/>
      <point x="386" y="812"/>
      <point x="386" y="840" type="curve" smooth="yes"/>
      <point x="386" y="868"/>
      <point x="364" y="890"/>
      <point x="336" y="890" type="curve" smooth="yes"/>
      <point x="308" y="890"/>
      <point x="286" y="868"/>
      <point x="286" y="840" type="curve" smooth="yes"/>
      <point x="286" y="812"/>
      <point x="308" y="790"/>
    </contour>
    <contour>
      <point x="248" y="980" type="curve" smooth="yes"/>
      <point x="276" y="980"/>
      <point x="298" y="1002"/>
      <point x="298" y="1030" type="curve" smooth="yes"/>
      <point x="298" y="1058"/>
      <point x="276" y="1080"/>
      <point x="248" y="1080" type="curve" smooth="yes"/>
      <point x="220" y="1080"/>
      <point x="198" y="1058"/>
      <point x="198" y="1030" type="curve" smooth="yes"/>
      <point x="198" y="1002"/>
      <point x="220" y="980"/>
    </contour>
    <contour>
      <point x="774" y="220" type="curve" smooth="yes"/>
      <point x="802" y="220"/>
      <point x="824" y="242"/>
      <point x="824" y="270" type="curve" smooth="yes"/>
      <point x="824" y="298"/>
      <point x="802" y="320"/>
      <point x="774" y="320" type="curve" smooth="yes"/>
      <point x="746" y="320"/>
      <point x="724" y="298"/>
      <point x="724" y="270" type="curve" smooth="yes"/>
      <point x="724" y="242"/>
      <point x="746" y="220"/>
    </contour>
    <contour>
      <point x="860" y="410" type="curve" smooth="yes"/>
      <point x="888" y="410"/>
      <point x="910" y="432"/>
      <point x="910" y="460" type="curve" smooth="yes"/>
      <point x="910" y="488"/>
      <point x="888" y="510"/>
      <point x="860" y="510" type="curve" smooth="yes"/>
      <point x="832" y="510"/>
      <point x="810" y="488"/>
      <point x="810" y="460" type="curve" smooth="yes"/>
      <point x="810" y="432"/>
      <point x="832" y="410"/>
    </contour>
    <contour>
      <point x="948" y="600" type="curve" smooth="yes"/>
      <point x="976" y="600"/>
      <point x="998" y="622"/>
      <point x="998" y="650" type="curve" smooth="yes"/>
      <point x="998" y="678"/>
      <point x="976" y="700"/>
      <point x="948" y="700" type="curve" smooth="yes"/>
      <point x="920" y="700"/>
      <point x="898" y="678"/>
      <point x="898" y="650" type="curve" smooth="yes"/>
      <point x="898" y="622"/>
      <point x="920" y="600"/>
    </contour>
    <contour>
      <point x="1036" y="790" type="curve" smooth="yes"/>
      <point x="1064" y="790"/>
      <point x="1086" y="812"/>
      <point x="1086" y="840" type="curve" smooth="yes"/>
      <point x="1086" y="868"/>
      <point x="1064" y="890"/>
      <point x="1036" y="890" type="curve" smooth="yes"/>
      <point x="1008" y="890"/>
      <point x="986" y="868"/>
      <point x="986" y="840" type="curve" smooth="yes"/>
      <point x="986" y="812"/>
      <point x="1008" y="790"/>
    </contour>
    <contour>
      <point x="1124" y="980" type="curve" smooth="yes"/>
      <point x="1152" y="980"/>
      <point x="1174" y="1002"/>
      <point x="1174" y="1030" type="curve" smooth="yes"/>
      <point x="1174" y="1058"/>
      <point x="1152" y="1080"/>
      <point x="1124" y="1080" type="curve" smooth="yes"/>
      <point x="1096" y="1080"/>
      <point x="1074" y="1058"/>
      <point x="1074" y="1030" type="curve" smooth="yes"/>
      <point x="1074" y="1002"/>
      <point x="1096" y="980"/>
    </contour>
    <contour>
      <point x="1212" y="1320" type="curve" smooth="yes"/>
      <point x="1268" y="1320"/>
      <point x="1312" y="1276"/>
      <point x="1312" y="1220" type="curve" smooth="yes"/>
      <point x="1312" y="1206"/>
      <point x="1308" y="1192"/>
      <point x="1302" y="1178" type="curve" smooth="yes"/>
      <point x="776" y="38" type="line" smooth="yes"/>
      <point x="772" y="30"/>
      <point x="748" y="-20"/>
      <point x="686" y="-20" type="curve" smooth="yes"/>
      <point x="646" y="-20"/>
      <point x="612" y="4"/>
      <point x="596" y="38" type="curve" smooth="yes"/>
      <point x="70" y="1178" type="line" smooth="yes"/>
      <point x="64" y="1192"/>
      <point x="60" y="1206"/>
      <point x="60" y="1220" type="curve" smooth="yes"/>
      <point x="60" y="1276"/>
      <point x="104" y="1320"/>
      <point x="160" y="1320" type="curve" smooth="yes"/>
      <point x="200" y="1320"/>
      <point x="234" y="1296"/>
      <point x="250" y="1262" type="curve" smooth="yes"/>
      <point x="686" y="318" type="line"/>
      <point x="1122" y="1262" type="line" smooth="yes"/>
      <point x="1126" y="1270"/>
      <point x="1150" y="1320"/>
    </contour>
  </outline>
</glyph>
<glyph name="W" format="2">
  <advance width="1912"/>
  <unicode hex="0057"/>
  <outline>
    <contour>
      <point x="964" y="1360" type="line"/>
      <point x="952" y="1360" type="line"/>
      <point x="566" y="412" type="line"/>
      <point x="224" y="1300" type="line"/>
      <point x="20" y="1300" type="line"/>
      <point x="556" y="-60" type="line"/>
      <point x="568" y="-60" type="line"/>
      <point x="958" y="903" type="line"/>
      <point x="1336" y="-60" type="line"/>
      <point x="1348" y="-60" type="line"/>
      <point x="1892" y="1300" type="line"/>
      <point x="1692" y="1300" type="line"/>
      <point x="1338" y="412" type="line"/>
    </contour>
  </outline>
</glyph>
<glyph name="X" format="2">
  <advance width="1356"/>
  <unicode hex="0058"/>
  <outline>
    <contour>
      <point x="28" y="0" type="line"/>
      <point x="708" y="0" type="line"/>
      <point x="468" y="390" type="line"/>
      <point x="535" y="461" type="line"/>
      <point x="1288" y="-20" type="line"/>
      <point x="1288" y="540" type="line"/>
      <point x="866" y="810" type="line"/>
      <point x="1328" y="1300" type="line"/>
      <point x="648" y="1300" type="line"/>
      <point x="890" y="908" type="line"/>
      <point x="824" y="838" type="line"/>
      <point x="68" y="1320" type="line"/>
      <point x="68" y="760" type="line"/>
      <point x="492" y="490" type="line"/>
    </contour>
  </outline>
</glyph>
<glyph name="Y" format="2">
  <advance width="992"/>
  <unicode hex="0059"/>
  <outline>
    <contour>
      <point x="10" y="1300" type="line"/>
      <point x="494" y="1300" type="line"/>
      <point x="494" y="1216" type="line"/>
      <point x="378" y="1216" type="line"/>
      <point x="558" y="576" type="line"/>
      <point x="762" y="1216" type="line"/>
      <point x="638" y="1216" type="line"/>
      <point x="638" y="1300" type="line"/>
      <point x="982" y="1300" type="line"/>
      <point x="982" y="1216" type="line"/>
      <point x="858" y="1216" type="line"/>
      <point x="602" y="428" type="line"/>
      <point x="602" y="84" type="line"/>
      <point x="718" y="84" type="line"/>
      <point x="718" y="0" type="line"/>
      <point x="234" y="0" type="line"/>
      <point x="234" y="84" type="line"/>
      <point x="350" y="84" type="line"/>
      <point x="350" y="418" type="line"/>
      <point x="112" y="1216" type="line"/>
      <point x="10" y="1216" type="line"/>
    </contour>
  </outline>
</glyph>
<glyph name="Z" format="2">
  <advance width="1388"/>
  <unicode hex="005A"/>
  <outline>
    <contour>
      <point x="60" y="1300" type="line"/>
      <point x="600" y="1300" type="line"/>
      <point x="300" y="824" type="line"/>
      <point x="380" y="824" type="line"/>
      <point x="680" y="1300" type="line"/>
      <point x="1348" y="1300" type="line"/>
      <point x="1348" y="1244" type="line"/>
      <point x="578" y="80" type="line"/>
      <point x="650" y="80" type="line"/>
      <point x="970" y="556" type="line"/>
      <point x="1328" y="556" type="line"/>
      <point x="1328" y="0" type="line"/>
      <point x="768" y="0" type="line"/>
      <point x="1088" y="476" type="line"/>
      <point x="1008" y="476" type="line"/>
      <point x="688" y="0" type="line"/>
      <point x="40" y="0" type="line"/>
      <point x="40" y="56" type="line"/>
      <point x="814" y="1220" type="line"/>
      <point x="736" y="1220" type="line"/>
      <point x="422" y="744" type="line"/>
      <point x="60" y="744" type="line"/>
    </contour>
  </outline>
</glyph>
<glyph name="backslash" format="2">
  <advance width="696"/>
  <unicode hex="005C"/>
  <outline>
    <contour>
      <point x="272" y="1300" type="line"/>
      <point x="666" y="0" type="line"/>
      <point x="424" y="0" type="line"/>
      <point x="30" y="1300" type="line"/>
    </contour>
  </outline>
</glyph>
<glyph name="bracketright" format="2">
  <advance width="532"/>
  <unicode hex="005D"/>
  <outline>
    <contour>
      <point x="140" y="-240" type="line"/>
      <point x="332" y="-240" type="line"/>
      <point x="332" y="1244" type="line"/>
      <point x="140" y="1244" type="line"/>
      <point x="140" y="1264" type="line"/>
      <point x="352" y="1264" type="line"/>
      <point x="352" y="-260" type="line"/>
      <point x="140" y="-260" type="line"/>
    </contour>
    <contour>
      <point x="372" y="-280" type="line"/>
      <point x="372" y="1284" type="line"/>
      <point x="120" y="1284" type="line"/>
      <point x="120" y="1224" type="line"/>
      <point x="312" y="1224" type="line"/>
      <point x="312" y="-220" type="line"/>
      <point x="120" y="-220" type="line"/>
      <point x="120" y="-280" type="line"/>
    </contour>
    <contour>
      <point x="392" y="-300" type="line"/>
      <point x="100" y="-300" type="line"/>
      <point x="100" y="-200" type="line"/>
      <point x="292" y="-200" type="line"/>
      <point x="292" y="1204" type="line"/>
      <point x="100" y="1204" type="line"/>
      <point x="100" y="1304" type="line"/>
      <point x="392" y="1304" type="line"/>
    </contour>
    <contour>
      <point x="412" y="-320" type="line"/>
      <point x="412" y="1324" type="line"/>
      <point x="80" y="1324" type="line"/>
      <point x="80" y="1184" type="line"/>
      <point x="272" y="1184" type="line"/>
      <point x="272" y="-180" type="line"/>
      <point x="80" y="-180" type="line"/>
      <point x="80" y="-320" type="line"/>
    </contour>
    <contour>
      <point x="432" y="-340" type="line"/>
      <point x="60" y="-340" type="line"/>
      <point x="60" y="-160" type="line"/>
      <point x="252" y="-160" type="line"/>
      <point x="252" y="1164" type="line"/>
      <point x="60" y="1164" type="line"/>
      <point x="60" y="1344" type="line"/>
      <point x="432" y="1344" type="line"/>
    </contour>
    <contour>
      <point x="452" y="-360" type="line"/>
      <point x="452" y="1364" type="line"/>
      <point x="40" y="1364" type="line"/>
      <point x="40" y="1144" type="line"/>
      <point x="232" y="1144" type="line"/>
      <point x="232" y="-140" type="line"/>
      <point x="40" y="-140" type="line"/>
      <point x="40" y="-360" type="line"/>
    </contour>
    <contour>
      <point x="472" y="-380" type="line"/>
      <point x="20" y="-380" type="line"/>
      <point x="20" y="-120" type="line"/>
      <point x="212" y="-120" type="line"/>
      <point x="212" y="1124" type="line"/>
      <point x="20" y="1124" type="line"/>
      <point x="20" y="1384" type="line"/>
      <point x="472" y="1384" type="line"/>
    </contour>
  </outline>
</glyph>
<glyph name="asciicircum" format="2">
  <advance width="1058"/>
  <unicode hex="005E"/>
  <outline>
    <contour>
      <point x="764" y="816" type="line"/>
      <point x="1038" y="816" type="line"/>
      <point x="579" y="1300" type="line"/>
      <point x="465" y="1300" type="line"/>
      <point x="20" y="816" type="line"/>
      <point x="294" y="816" type="line"/>
      <point x="522" y="1081" type="line"/>
    </contour>
  </outline>
</glyph>
<glyph name="underscore" format="2">
  <advance width="1008"/>
  <unicode hex="005F"/>
  <outline>
    <contour>
      <point x="40" y="0" type="line"/>
      <point x="968" y="0" type="line"/>
      <point x="968" y="-156" type="line"/>
      <point x="40" y="-156" type="line"/>
    </contour>
  </outline>
</glyph>
<glyph name="grave" format="2">
  <advance width="724"/>
  <unicode hex="0060"/>
  <outline>
    <contour>
      <point x="32" y="1300" type="line"/>
      <point x="328" y="1300" type="line"/>
      <point x="704" y="720" type="line"/>
      <point x="468" y="720" type="line"/>
    </contour>
  </outline>
</glyph>
<glyph name="b" format="2">
  <advance width="1386"/>
  <unicode hex="0062"/>
  <outline>
    <contour>
      <point x="816" y="718" type="curve" smooth="yes"/>
      <point x="1025" y="718"/>
      <point x="1142" y="645"/>
      <point x="1142" y="512" type="curve" smooth="yes"/>
      <point x="1142" y="373"/>
      <point x="1013" y="292"/>
      <point x="788" y="292" type="curve" smooth="yes"/>
      <point x="545" y="292"/>
      <point x="419" y="385"/>
      <point x="440" y="548" type="curve" smooth="yes"/>
      <point x="452" y="640" type="line"/>
      <point x="582" y="694"/>
      <point x="696" y="718"/>
    </contour>
    <contour>
      <point x="782" y="-20" type="curve" smooth="yes"/>
      <point x="1125" y="-20"/>
      <point x="1317" y="174"/>
      <point x="1317" y="519" type="curve" smooth="yes"/>
      <point x="1317" y="829"/>
      <point x="1161" y="1020"/>
      <point x="907" y="1020" type="curve" smooth="yes"/>
      <point x="739" y="1020"/>
      <point x="575" y="936"/>
      <point x="472" y="798" type="curve"/>
      <point x="538" y="1300" type="line"/>
      <point x="30" y="1300" type="line"/>
      <point x="30" y="988" type="line"/>
      <point x="348" y="988" type="line"/>
      <point x="286" y="516" type="line" smooth="yes"/>
      <point x="242" y="184"/>
      <point x="431" y="-20"/>
    </contour>
  </outline>
</glyph>
<glyph name="d" format="2">
  <advance width="1408"/>
  <unicode hex="0064"/>
  <outline>
    <contour>
      <point x="160" y="460" type="line"/>
      <point x="160" y="360" type="line"/>
      <point x="60" y="360" type="line"/>
      <point x="60" y="460" type="line"/>
    </contour>
    <contour>
      <point x="160" y="580" type="line"/>
      <point x="160" y="480" type="line"/>
      <point x="60" y="480" type="line"/>
      <point x="60" y="580" type="line"/>
    </contour>
    <contour>
      <point x="552" y="1168" type="line"/>
      <point x="628" y="1168" type="line"/>
      <point x="628" y="1092" type="line"/>
      <point x="552" y="1092" type="line"/>
    </contour>
    <contour>
      <point x="552" y="1288" type="line"/>
      <point x="628" y="1288" type="line"/>
      <point x="628" y="1212" type="line"/>
      <point x="552" y="1212" type="line"/>
    </contour>
    <contour>
      <point x="665" y="1175" type="line"/>
      <point x="755" y="1175" type="line"/>
      <point x="755" y="1085" type="line"/>
      <point x="665" y="1085" type="line"/>
    </contour>
    <contour>
      <point x="660" y="1300" type="line"/>
      <point x="760" y="1300" type="line"/>
      <point x="760" y="1200" type="line"/>
      <point x="660" y="1200" type="line"/>
    </contour>
    <contour>
      <point x="880" y="1060" type="line"/>
      <point x="880" y="960" type="line"/>
      <point x="780" y="960" type="line"/>
      <point x="780" y="1060" type="line"/>
    </contour>
    <contour>
      <point x="870" y="1170" type="line"/>
      <point x="870" y="1090" type="line"/>
      <point x="790" y="1090" type="line"/>
      <point x="790" y="1170" type="line"/>
    </contour>
    <contour>
      <point x="880" y="1300" type="line"/>
      <point x="880" y="1200" type="line"/>
      <point x="780" y="1200" type="line"/>
      <point x="780" y="1300" type="line"/>
    </contour>
    <contour>
      <point x="1000" y="1060" type="line"/>
      <point x="1000" y="960" type="line"/>
      <point x="900" y="960" type="line"/>
      <point x="900" y="1060" type="line"/>
    </contour>
    <contour>
      <point x="1000" y="1180" type="line"/>
      <point x="1000" y="1080" type="line"/>
      <point x="900" y="1080" type="line"/>
      <point x="900" y="1180" type="line"/>
    </contour>
    <contour>
      <point x="1000" y="1300" type="line"/>
      <point x="1000" y="1200" type="line"/>
      <point x="900" y="1200" type="line"/>
      <point x="900" y="1300" type="line"/>
    </contour>
    <contour>
      <point x="1120" y="1060" type="line"/>
      <point x="1120" y="960" type="line"/>
      <point x="1020" y="960" type="line"/>
      <point x="1020" y="1060" type="line"/>
    </contour>
    <contour>
      <point x="1120" y="1180" type="line"/>
      <point x="1120" y="1080" type="line"/>
      <point x="1020" y="1080" type="line"/>
      <point x="1020" y="1180" type="line"/>
    </contour>
    <contour>
      <point x="1120" y="1300" type="line"/>
      <point x="1120" y="1200" type="line"/>
      <point x="1020" y="1200" type="line"/>
      <point x="1020" y="1300" type="line"/>
    </contour>
    <contour>
      <point x="1360" y="100" type="line"/>
      <point x="1360" y="0" type="line"/>
      <point x="1260" y="0" type="line"/>
      <point x="1260" y="100" type="line"/>
    </contour>
    <contour>
      <point x="606" y="304" type="line"/>
      <point x="606" y="276" type="line"/>
      <point x="576" y="276" type="line"/>
      <point x="576" y="304" type="line"/>
    </contour>
    <contour>
      <point x="606" y="664" type="line"/>
      <point x="606" y="636" type="line"/>
      <point x="576" y="636" type="line"/>
      <point x="576" y="664" type="line"/>
    </contour>
    <contour>
      <point x="486" y="424" type="line"/>
      <point x="486" y="396" type="line"/>
      <point x="456" y="396" type="line"/>
      <point x="456" y="424" type="line"/>
    </contour>
    <contour>
      <point x="486" y="544" type="line"/>
      <point x="486" y="516" type="line"/>
      <point x="456" y="516" type="line"/>
      <point x="456" y="544" type="line"/>
    </contour>
    <contour>
      <point x="1348" y="208" type="line"/>
      <point x="1348" y="132" type="line"/>
      <point x="1272" y="132" type="line"/>
      <point x="1272" y="208" type="line"/>
    </contour>
    <contour>
      <point x="504" y="324" type="line"/>
      <point x="504" y="256" type="line"/>
      <point x="436" y="256" type="line"/>
      <point x="436" y="324" type="line"/>
    </contour>
    <contour>
      <point x="504" y="684" type="line"/>
      <point x="504" y="616" type="line"/>
      <point x="436" y="616" type="line"/>
      <point x="436" y="684" type="line"/>
    </contour>
    <contour>
      <point x="244" y="62" type="line"/>
      <point x="244" y="38" type="line"/>
      <point x="218" y="38" type="line"/>
      <point x="218" y="62" type="line"/>
    </contour>
    <contour>
      <point x="268" y="208" type="line"/>
      <point x="268" y="132" type="line"/>
      <point x="192" y="132" type="line"/>
      <point x="192" y="208" type="line"/>
    </contour>
    <contour>
      <point x="268" y="808" type="line"/>
      <point x="268" y="732" type="line"/>
      <point x="192" y="732" type="line"/>
      <point x="192" y="808" type="line"/>
    </contour>
    <contour>
      <point x="244" y="902" type="line"/>
      <point x="244" y="878" type="line"/>
      <point x="218" y="878" type="line"/>
      <point x="218" y="902" type="line"/>
    </contour>
    <contour>
      <point x="384" y="84" type="line"/>
      <point x="384" y="16" type="line"/>
      <point x="316" y="16" type="line"/>
      <point x="316" y="84" type="line"/>
    </contour>
    <contour>
      <point x="400" y="220" type="line"/>
      <point x="400" y="120" type="line"/>
      <point x="300" y="120" type="line"/>
      <point x="300" y="220" type="line"/>
    </contour>
    <contour>
      <point x="400" y="820" type="line"/>
      <point x="400" y="720" type="line"/>
      <point x="300" y="720" type="line"/>
      <point x="300" y="820" type="line"/>
    </contour>
    <contour>
      <point x="384" y="924" type="line"/>
      <point x="384" y="856" type="line"/>
      <point x="316" y="856" type="line"/>
      <point x="316" y="924" type="line"/>
    </contour>
    <contour>
      <point x="147" y="327" type="line"/>
      <point x="147" y="253" type="line"/>
      <point x="73" y="253" type="line"/>
      <point x="73" y="327" type="line"/>
    </contour>
    <contour>
      <point x="147" y="687" type="line"/>
      <point x="147" y="613" type="line"/>
      <point x="73" y="613" type="line"/>
      <point x="73" y="687" type="line"/>
    </contour>
    <contour>
      <point x="280" y="340" type="line"/>
      <point x="280" y="240" type="line"/>
      <point x="180" y="240" type="line"/>
      <point x="180" y="340" type="line"/>
    </contour>
    <contour>
      <point x="280" y="460" type="line"/>
      <point x="280" y="360" type="line"/>
      <point x="180" y="360" type="line"/>
      <point x="180" y="460" type="line"/>
    </contour>
    <contour>
      <point x="280" y="580" type="line"/>
      <point x="280" y="480" type="line"/>
      <point x="180" y="480" type="line"/>
      <point x="180" y="580" type="line"/>
    </contour>
    <contour>
      <point x="280" y="700" type="line"/>
      <point x="280" y="600" type="line"/>
      <point x="180" y="600" type="line"/>
      <point x="180" y="700" type="line"/>
    </contour>
    <contour>
      <point x="400" y="340" type="line"/>
      <point x="400" y="240" type="line"/>
      <point x="300" y="240" type="line"/>
      <point x="300" y="340" type="line"/>
    </contour>
    <contour>
      <point x="400" y="460" type="line"/>
      <point x="400" y="360" type="line"/>
      <point x="300" y="360" type="line"/>
      <point x="300" y="460" type="line"/>
    </contour>
    <contour>
      <point x="400" y="580" type="line"/>
      <point x="400" y="480" type="line"/>
      <point x="300" y="480" type="line"/>
      <point x="300" y="580" type="line"/>
    </contour>
    <contour>
      <point x="400" y="700" type="line"/>
      <point x="400" y="600" type="line"/>
      <point x="300" y="600" type="line"/>
      <point x="300" y="700" type="line"/>
    </contour>
    <contour>
      <point x="512" y="90" type="line"/>
      <point x="512" y="10" type="line"/>
      <point x="430" y="10" type="line"/>
      <point x="430" y="90" type="line"/>
    </contour>
    <contour>
      <point x="520" y="220" type="line"/>
      <point x="520" y="120" type="line"/>
      <point x="420" y="120" type="line"/>
      <point x="420" y="220" type="line"/>
    </contour>
    <contour>
      <point x="520" y="820" type="line"/>
      <point x="520" y="720" type="line"/>
      <point x="420" y="720" type="line"/>
      <point x="420" y="820" type="line"/>
    </contour>
    <contour>
      <point x="512" y="930" type="line"/>
      <point x="512" y="850" type="line"/>
      <point x="430" y="850" type="line"/>
      <point x="430" y="930" type="line"/>
    </contour>
    <contour>
      <point x="635" y="95" type="line"/>
      <point x="635" y="5" type="line"/>
      <point x="545" y="5" type="line"/>
      <point x="545" y="95" type="line"/>
    </contour>
    <contour>
      <point x="640" y="220" type="line"/>
      <point x="640" y="120" type="line"/>
      <point x="540" y="120" type="line"/>
      <point x="540" y="220" type="line"/>
    </contour>
    <contour>
      <point x="640" y="820" type="line"/>
      <point x="640" y="720" type="line"/>
      <point x="540" y="720" type="line"/>
      <point x="540" y="820" type="line"/>
    </contour>
    <contour>
      <point x="640" y="940" type="line"/>
      <point x="640" y="840" type="line"/>
      <point x="540" y="840" type="line"/>
      <point x="540" y="940" type="line"/>
    </contour>
    <contour>
      <point x="740" y="80" type="line"/>
      <point x="740" y="20" type="line"/>
      <point x="680" y="20" type="line"/>
      <point x="680" y="80" type="line"/>
    </contour>
    <contour>
      <point x="760" y="220" type="line"/>
      <point x="760" y="120" type="line"/>
      <point x="660" y="120" type="line"/>
      <point x="660" y="220" type="line"/>
    </contour>
    <contour>
      <point x="760" y="820" type="line"/>
      <point x="760" y="720" type="line"/>
      <point x="660" y="720" type="line"/>
      <point x="660" y="820" type="line"/>
    </contour>
    <contour>
      <point x="760" y="940" type="line"/>
      <point x="760" y="840" type="line"/>
      <point x="660" y="840" type="line"/>
      <point x="660" y="940" type="line"/>
    </contour>
    <contour>
      <point x="1240" y="100" type="line"/>
      <point x="1240" y="0" type="line"/>
      <point x="1140" y="0" type="line"/>
      <point x="1140" y="100" type="line"/>
    </contour>
    <contour>
      <point x="1240" y="220" type="line"/>
      <point x="1240" y="120" type="line"/>
      <point x="1140" y="120" type="line"/>
      <point x="1140" y="220" type="line"/>
    </contour>
    <contour>
      <point x="860" y="200" type="line"/>
      <point x="860" y="140" type="line"/>
      <point x="800" y="140" type="line"/>
      <point x="800" y="200" type="line"/>
    </contour>
    <contour>
      <point x="880" y="340" type="line"/>
      <point x="880" y="240" type="line"/>
      <point x="780" y="240" type="line"/>
      <point x="780" y="340" type="line"/>
    </contour>
    <contour>
      <point x="880" y="460" type="line"/>
      <point x="880" y="360" type="line"/>
      <point x="780" y="360" type="line"/>
      <point x="780" y="460" type="line"/>
    </contour>
    <contour>
      <point x="880" y="580" type="line"/>
      <point x="880" y="480" type="line"/>
      <point x="780" y="480" type="line"/>
      <point x="780" y="580" type="line"/>
    </contour>
    <contour>
      <point x="880" y="700" type="line"/>
      <point x="880" y="600" type="line"/>
      <point x="780" y="600" type="line"/>
      <point x="780" y="700" type="line"/>
    </contour>
    <contour>
      <point x="880" y="820" type="line"/>
      <point x="880" y="720" type="line"/>
      <point x="780" y="720" type="line"/>
      <point x="780" y="820" type="line"/>
    </contour>
    <contour>
      <point x="880" y="940" type="line"/>
      <point x="880" y="840" type="line"/>
      <point x="780" y="840" type="line"/>
      <point x="780" y="940" type="line"/>
    </contour>
    <contour>
      <point x="995" y="95" type="line"/>
      <point x="995" y="5" type="line"/>
      <point x="905" y="5" type="line"/>
      <point x="905" y="95" type="line"/>
    </contour>
    <contour>
      <point x="1000" y="220" type="line"/>
      <point x="1000" y="120" type="line"/>
      <point x="900" y="120" type="line"/>
      <point x="900" y="220" type="line"/>
    </contour>
    <contour>
      <point x="1000" y="340" type="line"/>
      <point x="1000" y="240" type="line"/>
      <point x="900" y="240" type="line"/>
      <point x="900" y="340" type="line"/>
    </contour>
    <contour>
      <point x="1000" y="460" type="line"/>
      <point x="1000" y="360" type="line"/>
      <point x="900" y="360" type="line"/>
      <point x="900" y="460" type="line"/>
    </contour>
    <contour>
      <point x="1000" y="580" type="line"/>
      <point x="1000" y="480" type="line"/>
      <point x="900" y="480" type="line"/>
      <point x="900" y="580" type="line"/>
    </contour>
    <contour>
      <point x="1000" y="700" type="line"/>
      <point x="1000" y="600" type="line"/>
      <point x="900" y="600" type="line"/>
      <point x="900" y="700" type="line"/>
    </contour>
    <contour>
      <point x="1000" y="820" type="line"/>
      <point x="1000" y="720" type="line"/>
      <point x="900" y="720" type="line"/>
      <point x="900" y="820" type="line"/>
    </contour>
    <contour>
      <point x="1000" y="940" type="line"/>
      <point x="1000" y="840" type="line"/>
      <point x="900" y="840" type="line"/>
      <point x="900" y="940" type="line"/>
    </contour>
    <contour>
      <point x="1120" y="100" type="line"/>
      <point x="1120" y="0" type="line"/>
      <point x="1020" y="0" type="line"/>
      <point x="1020" y="100" type="line"/>
    </contour>
    <contour>
      <point x="1120" y="220" type="line"/>
      <point x="1120" y="120" type="line"/>
      <point x="1020" y="120" type="line"/>
      <point x="1020" y="220" type="line"/>
    </contour>
    <contour>
      <point x="1120" y="340" type="line"/>
      <point x="1120" y="240" type="line"/>
      <point x="1020" y="240" type="line"/>
      <point x="1020" y="340" type="line"/>
    </contour>
    <contour>
      <point x="1120" y="460" type="line"/>
      <point x="1120" y="360" type="line"/>
      <point x="1020" y="360" type="line"/>
      <point x="1020" y="460" type="line"/>
    </contour>
    <contour>
      <point x="1120" y="580" type="line"/>
      <point x="1120" y="480" type="line"/>
      <point x="1020" y="480" type="line"/>
      <point x="1020" y="580" type="line"/>
    </contour>
    <contour>
      <point x="1120" y="700" type="line"/>
      <point x="1120" y="600" type="line"/>
      <point x="1020" y="600" type="line"/>
      <point x="1020" y="700" type="line"/>
    </contour>
    <contour>
      <point x="1120" y="820" type="line"/>
      <point x="1120" y="720" type="line"/>
      <point x="1020" y="720" type="line"/>
      <point x="1020" y="820" type="line"/>
    </contour>
    <contour>
      <point x="1120" y="940" type="line"/>
      <point x="1120" y="840" type="line"/>
      <point x="1020" y="840" type="line"/>
      <point x="1020" y="940" type="line"/>
    </contour>
  </outline>
</glyph>
<glyph name="f" format="2">
  <advance width="830"/>
  <unicode hex="0066"/>
  <outline>
    <contour>
      <point x="398" y="1300" type="line"/>
      <point x="306" y="1000" type="line"/>
      <point x="104" y="1000" type="line"/>
      <point x="40" y="724" type="line"/>
      <point x="90" y="674" type="line"/>
      <point x="206" y="674" type="line"/>
      <point x="-62" y="-204" type="line"/>
      <point x="-142" y="-204" type="line"/>
      <point x="-140" y="-90" type="line"/>
      <point x="-190" y="-40" type="line"/>
      <point x="-262" y="-40" type="line"/>
      <point x="-370" y="-400" type="line"/>
      <point x="-320" y="-450" type="line"/>
      <point x="64" y="-450" type="line"/>
      <point x="404" y="674" type="line"/>
      <point x="776" y="674" type="line"/>
      <point x="858" y="950" type="line"/>
      <point x="808" y="1000" type="line"/>
      <point x="502" y="1000" type="line"/>
      <point x="518" y="1054" type="line"/>
      <point x="878" y="1054" type="line"/>
      <point x="988" y="1400" type="line"/>
      <point x="938" y="1450" type="line"/>
      <point x="812" y="1450" type="line"/>
      <point x="710" y="1300" type="line"/>
    </contour>
    <contour>
      <point x="72" y="744" type="line"/>
      <point x="124" y="970" type="line"/>
      <point x="326" y="970" type="line"/>
      <point x="418" y="1270" type="line"/>
      <point x="730" y="1270" type="line"/>
      <point x="832" y="1420" type="line"/>
      <point x="902" y="1420" type="line"/>
      <point x="808" y="1124" type="line"/>
      <point x="448" y="1124" type="line"/>
      <point x="416" y="1020" type="line"/>
      <point x="466" y="970" type="line"/>
      <point x="774" y="970" type="line"/>
      <point x="706" y="744" type="line"/>
      <point x="334" y="744" type="line"/>
      <point x="-6" y="-380" type="line"/>
      <point x="-334" y="-380" type="line"/>
      <point x="-242" y="-70" type="line"/>
      <point x="-212" y="-70" type="line"/>
      <point x="-214" y="-184" type="line"/>
      <point x="-164" y="-234" type="line"/>
      <point x="-42" y="-234" type="line"/>
      <point x="242" y="694" type="line"/>
      <point x="202" y="744" type="line"/>
    </contour>
  </outline>
</glyph>
<glyph name="g" format="2">
  <advance width="1270"/>
  <unicode hex="0067"/>
  <outline>
    <contour>
      <point x="742" y="246" type="curve"/>
      <point x="968" y="260"/>
      <point x="1082" y="352"/>
      <point x="1082" y="520" type="curve" smooth="yes"/>
      <point x="1082" y="630"/>
      <point x="1034" y="774"/>
      <point x="946" y="924" type="curve"/>
      <point x="1116" y="1006" type="line"/>
      <point x="1194" y="876"/>
      <point x="1240" y="739"/>
      <point x="1240" y="636" type="curve" smooth="yes"/>
      <point x="1240" y="343"/>
      <point x="978" y="96"/>
      <point x="646" y="74" type="curve"/>
      <point x="552" y="-76"/>
      <point x="512" y="-134"/>
      <point x="464" y="-190" type="curve"/>
      <point x="568" y="-160"/>
      <point x="692" y="-144"/>
      <point x="822" y="-144" type="curve" smooth="yes"/>
      <point x="984" y="-144"/>
      <point x="1166" y="-170"/>
      <point x="1266" y="-206" type="curve"/>
      <point x="1238" y="-388" type="line"/>
      <point x="1054" y="-344"/>
      <point x="890" y="-328"/>
      <point x="662" y="-328" type="curve" smooth="yes"/>
      <point x="500" y="-328"/>
      <point x="441" y="-336"/>
      <point x="96" y="-400" type="curve"/>
      <point x="60" y="-248" type="line"/>
      <point x="192" y="-206" type="line"/>
      <point x="333" y="-130"/>
      <point x="440" y="-44"/>
      <point x="546" y="76" type="curve"/>
      <point x="254" y="104"/>
      <point x="60" y="274"/>
      <point x="60" y="500" type="curve" smooth="yes"/>
      <point x="60" y="760"/>
      <point x="312" y="1022"/>
      <point x="564" y="1022" type="curve" smooth="yes"/>
      <point x="756" y="1022"/>
      <point x="884" y="870"/>
      <point x="884" y="642" type="curve" smooth="yes"/>
      <point x="884" y="510"/>
      <point x="840" y="388"/>
    </contour>
    <contour>
      <point x="646" y="250" type="curve"/>
      <point x="696" y="326"/>
      <point x="720" y="414"/>
      <point x="720" y="524" type="curve" smooth="yes"/>
      <point x="720" y="740"/>
      <point x="626" y="858"/>
      <point x="454" y="858" type="curve" smooth="yes"/>
      <point x="306" y="858"/>
      <point x="224" y="770"/>
      <point x="224" y="614" type="curve" smooth="yes"/>
      <point x="224" y="400"/>
      <point x="378" y="266"/>
    </contour>
  </outline>
</glyph>
<glyph name="h" format="2">
  <advance width="1190"/>
  <unicode hex="0068"/>
  <outline>
    <contour>
      <point x="400" y="416" type="curve" smooth="yes"/>
      <point x="376" y="0" type="line"/>
      <point x="144" y="0" type="line"/>
      <point x="192" y="872" type="line" smooth="yes"/>
      <point x="197" y="958"/>
      <point x="170" y="988"/>
      <point x="88" y="988" type="curve" smooth="yes"/>
      <point x="-72" y="988" type="line"/>
      <point x="-44" y="1300" type="line"/>
      <point x="140" y="1300" type="line" smooth="yes"/>
      <point x="368" y="1300"/>
      <point x="449" y="1194"/>
      <point x="432" y="916" type="curve" smooth="yes"/>
      <point x="421" y="713" type="line"/>
      <point x="540" y="916"/>
      <point x="678" y="1016"/>
      <point x="847" y="1016" type="curve" smooth="yes"/>
      <point x="1018" y="1016"/>
      <point x="1124" y="915"/>
      <point x="1124" y="760" type="curve" smooth="yes"/>
      <point x="1124" y="545"/>
      <point x="920" y="457"/>
      <point x="920" y="365" type="curve" smooth="yes"/>
      <point x="920" y="330"/>
      <point x="950" y="312"/>
      <point x="998" y="312" type="curve" smooth="yes"/>
      <point x="1170" y="312" type="line"/>
      <point x="1170" y="0" type="line"/>
      <point x="912" y="0" type="line" smooth="yes"/>
      <point x="694" y="0"/>
      <point x="604" y="68"/>
      <point x="604" y="176" type="curve" smooth="yes"/>
      <point x="604" y="346"/>
      <point x="840" y="486"/>
      <point x="840" y="627" type="curve" smooth="yes"/>
      <point x="840" y="685"/>
      <point x="791" y="720"/>
      <point x="709" y="720" type="curve" smooth="yes"/>
      <point x="565" y="720"/>
      <point x="411" y="568"/>
    </contour>
  </outline>
</glyph>
<glyph name="j" format="2">
  <advance width="468"/>
  <unicode hex="006A"/>
  <outline>
    <contour>
      <point x="38" y="1165" type="curve" smooth="yes"/>
      <point x="38" y="1254"/>
      <point x="105" y="1300"/>
      <point x="234" y="1300" type="curve" smooth="yes"/>
      <point x="363" y="1300"/>
      <point x="430" y="1254"/>
      <point x="430" y="1165" type="curve" smooth="yes"/>
      <point x="430" y="1074"/>
      <point x="361" y="1024"/>
      <point x="234" y="1024" type="curve" smooth="yes"/>
      <point x="107" y="1024"/>
      <point x="38" y="1074"/>
    </contour>
    <contour>
      <point x="18" y="1000" type="line"/>
      <point x="18" y="874" type="line"/>
      <point x="382" y="954" type="line"/>
      <point x="382" y="924" type="line"/>
      <point x="132" y="864" type="line"/>
      <point x="132" y="646" type="line"/>
      <point x="292" y="381"/>
      <point x="384" y="223"/>
      <point x="384" y="101" type="curve" smooth="yes"/>
      <point x="384" y="18"/>
      <point x="318" y="-3"/>
      <point x="-4" y="-22" type="curve"/>
      <point x="16" y="-330" type="line"/>
      <point x="308" y="-298"/>
      <point x="430" y="-168"/>
      <point x="430" y="110" type="curve" smooth="yes"/>
      <point x="430" y="1000" type="line"/>
    </contour>
  </outline>
</glyph>
<glyph name="k" format="2">
  <advance width="1192"/>
  <unicode hex="006B"/>
  <outline>
    <contour>
      <point x="1122" y="938" type="line"/>
      <point x="1132" y="938" type="line"/>
      <point x="1132" y="320" type="line"/>
      <point x="1122" y="280" type="line"/>
    </contour>
    <contour>
      <point x="70" y="940" type="line"/>
      <point x="70" y="282" type="line"/>
      <point x="60" y="322" type="line"/>
      <point x="60" y="940" type="line"/>
    </contour>
    <contour>
      <point x="60" y="870" type="line"/>
      <point x="60" y="640"/>
      <point x="282" y="476"/>
      <point x="596" y="476" type="curve" smooth="yes"/>
      <point x="910" y="476"/>
      <point x="1132" y="640"/>
      <point x="1132" y="870" type="curve"/>
      <point x="1132" y="820" type="line" smooth="yes"/>
      <point x="1132" y="590"/>
      <point x="910" y="426"/>
      <point x="596" y="426" type="curve" smooth="yes"/>
      <point x="282" y="426"/>
      <point x="60" y="590"/>
      <point x="60" y="820" type="curve" smooth="yes"/>
    </contour>
    <contour>
      <point x="60" y="770" type="line"/>
      <point x="60" y="540"/>
      <point x="282" y="376"/>
      <point x="596" y="376" type="curve" smooth="yes"/>
      <point x="910" y="376"/>
      <point x="1132" y="540"/>
      <point x="1132" y="770" type="curve"/>
      <point x="1132" y="720" type="line" smooth="yes"/>
      <point x="1132" y="490"/>
      <point x="910" y="326"/>
      <point x="596" y="326" type="curve" smooth="yes"/>
      <point x="282" y="326"/>
      <point x="60" y="490"/>
      <point x="60" y="720" type="curve" smooth="yes"/>
    </contour>
    <contour>
      <point x="60" y="670" type="line"/>
      <point x="60" y="440"/>
      <point x="282" y="276"/>
      <point x="596" y="276" type="curve" smooth="yes"/>
      <point x="910" y="276"/>
      <point x="1132" y="440"/>
      <point x="1132" y="670" type="curve"/>
      <point x="1132" y="620" type="line" smooth="yes"/>
      <point x="1132" y="390"/>
      <point x="910" y="226"/>
      <point x="596" y="226" type="curve" smooth="yes"/>
      <point x="282" y="226"/>
      <point x="60" y="390"/>
      <point x="60" y="620" type="curve" smooth="yes"/>
    </contour>
    <contour>
      <point x="60" y="570" type="line"/>
      <point x="60" y="340"/>
      <point x="282" y="176"/>
      <point x="596" y="176" type="curve" smooth="yes"/>
      <point x="910" y="176"/>
      <point x="1132" y="340"/>
      <point x="1132" y="570" type="curve"/>
      <point x="1132" y="520" type="line" smooth="yes"/>
      <point x="1132" y="290"/>
      <point x="910" y="126"/>
      <point x="596" y="126" type="curve" smooth="yes"/>
      <point x="282" y="126"/>
      <point x="60" y="290"/>
      <point x="60" y="520" type="curve" smooth="yes"/>
    </contour>
    <contour>
      <point x="60" y="470" type="line"/>
      <point x="60" y="240"/>
      <point x="282" y="76"/>
      <point x="596" y="76" type="curve" smooth="yes"/>
      <point x="910" y="76"/>
      <point x="1132" y="240"/>
      <point x="1132" y="470" type="curve"/>
      <point x="1132" y="420" type="line" smooth="yes"/>
      <point x="1132" y="190"/>
      <point x="910" y="26"/>
      <point x="596" y="26" type="curve" smooth="yes"/>
      <point x="282" y="26"/>
      <point x="60" y="190"/>
      <point x="60" y="420" type="curve" smooth="yes"/>
    </contour>
    <contour>
      <point x="60" y="370" type="line"/>
      <point x="60" y="140"/>
      <point x="282" y="-24"/>
      <point x="596" y="-24" type="curve" smooth="yes"/>
      <point x="910" y="-24"/>
      <point x="1132" y="140"/>
      <point x="1132" y="370" type="curve"/>
      <point x="1132" y="320" type="line" smooth="yes"/>
      <point x="1132" y="90"/>
      <point x="910" y="-74"/>
      <point x="596" y="-74" type="curve" smooth="yes"/>
      <point x="282" y="-74"/>
      <point x="60" y="90"/>
      <point x="60" y="320" type="curve" smooth="yes"/>
    </contour>
    <contour>
      <point x="1132" y="946" type="curve" smooth="yes"/>
      <point x="1132" y="920" type="line" smooth="yes"/>
      <point x="1132" y="690"/>
      <point x="910" y="526"/>
      <point x="596" y="526" type="curve" smooth="yes"/>
      <point x="282" y="526"/>
      <point x="60" y="690"/>
      <point x="60" y="920" type="curve" smooth="yes"/>
      <point x="60" y="946" type="line" smooth="yes"/>
      <point x="60" y="1150"/>
      <point x="288" y="1300"/>
      <point x="596" y="1300" type="curve" smooth="yes"/>
      <point x="904" y="1300"/>
      <point x="1132" y="1150"/>
    </contour>
    <contour>
      <point x="70" y="940" type="curve" smooth="yes"/>
      <point x="70" y="730"/>
      <point x="294" y="576"/>
      <point x="596" y="576" type="curve" smooth="yes"/>
      <point x="898" y="576"/>
      <point x="1122" y="730"/>
      <point x="1122" y="940" type="curve" smooth="yes"/>
      <point x="1122" y="1146"/>
      <point x="902" y="1290"/>
      <point x="596" y="1290" type="curve" smooth="yes"/>
      <point x="290" y="1290"/>
      <point x="70" y="1146"/>
    </contour>
    <contour>
      <point x="412" y="1172" type="line"/>
      <point x="486" y="1172" type="line"/>
      <point x="486" y="884" type="line"/>
      <point x="706" y="1066" type="line"/>
      <point x="808" y="1066" type="line"/>
      <point x="606" y="904" type="line"/>
      <point x="840" y="712" type="line"/>
      <point x="738" y="712" type="line"/>
      <point x="552" y="868" type="line"/>
      <point x="486" y="812" type="line"/>
      <point x="486" y="712" type="line"/>
      <point x="412" y="712" type="line"/>
    </contour>
  </outline>
</glyph>
<glyph name="l" format="2">
  <advance width="648"/>
  <unicode hex="006C"/>
  <outline>
    <contour>
      <point x="178" y="437" type="curve" smooth="yes"/>
      <point x="178" y="862"/>
      <point x="270" y="1232"/>
      <point x="377" y="1232" type="curve" smooth="yes"/>
      <point x="435" y="1232"/>
      <point x="466" y="1177"/>
      <point x="466" y="1073" type="curve" smooth="yes"/>
      <point x="466" y="849"/>
      <point x="341" y="597"/>
      <point x="-146" y="108" type="curve"/>
      <point x="-118" y="74" type="line"/>
      <point x="416" y="546"/>
      <point x="588" y="836"/>
      <point x="588" y="1064" type="curve" smooth="yes"/>
      <point x="588" y="1204"/>
      <point x="516" y="1298"/>
      <point x="408" y="1298" type="curve" smooth="yes"/>
      <point x="219" y="1298"/>
      <point x="62" y="914"/>
      <point x="62" y="455" type="curve" smooth="yes"/>
      <point x="62" y="138"/>
      <point x="141" y="-18"/>
      <point x="302" y="-18" type="curve" smooth="yes"/>
      <point x="398" y="-18"/>
      <point x="498" y="36"/>
      <point x="622" y="152" type="curve"/>
      <point x="590" y="192" type="line"/>
      <point x="482" y="92"/>
      <point x="395" y="50"/>
      <point x="329" y="50" type="curve" smooth="yes"/>
      <point x="227" y="50"/>
      <point x="178" y="176"/>
    </contour>
  </outline>
</glyph>
<glyph name="m" format="2">
  <advance width="1392"/>
  <unicode hex="006D"/>
  <outline>
    <contour>
      <point x="500" y="0" type="line"/>
      <point x="500" y="350"/>
      <point x="391" y="606"/>
      <point x="198" y="776" type="curve"/>
      <point x="156" y="734" type="line"/>
      <point x="334" y="552"/>
      <point x="432" y="302"/>
      <point x="432" y="0" type="curve"/>
      <point x="40" y="0" type="line"/>
      <point x="40" y="1000" type="line"/>
      <point x="252" y="1000" type="line" smooth="yes"/>
      <point x="392" y="1000"/>
      <point x="515" y="927"/>
      <point x="618" y="789" type="curve"/>
      <point x="618" y="1000" type="line"/>
      <point x="792" y="1000" type="line" smooth="yes"/>
      <point x="1176" y="1000"/>
      <point x="1352" y="615"/>
      <point x="1352" y="0" type="curve"/>
      <point x="960" y="0" type="line"/>
      <point x="960" y="350"/>
      <point x="872" y="606"/>
      <point x="718" y="776" type="curve"/>
      <point x="676" y="734" type="line"/>
      <point x="815" y="552"/>
      <point x="892" y="302"/>
      <point x="892" y="0" type="curve"/>
    </contour>
  </outline>
</glyph>
<glyph name="q" format="2">
  <advance width="1196"/>
  <unicode hex="0071"/>
  <outline>
    <contour>
      <point x="1056" y="-360" type="line"/>
      <point x="1182" y="-392" type="line"/>
      <point x="1182" y="-400" type="line"/>
      <point x="600" y="-400" type="line"/>
      <point x="600" y="-392" type="line"/>
      <point x="840" y="-360" type="line"/>
      <point x="840" y="190" type="line"/>
      <point x="736" y="56"/>
      <point x="592" y="-22"/>
      <point x="448" y="-22" type="curve" smooth="yes"/>
      <point x="232" y="-22"/>
      <point x="80" y="154"/>
      <point x="80" y="406" type="curve" smooth="yes"/>
      <point x="80" y="739"/>
      <point x="345" y="1022"/>
      <point x="657" y="1022" type="curve" smooth="yes"/>
      <point x="856" y="1022"/>
      <point x="824" y="908"/>
      <point x="1056" y="1000" type="curve"/>
    </contour>
    <contour>
      <point x="840" y="214" type="curve"/>
      <point x="840" y="576" type="line" smooth="yes"/>
      <point x="840" y="776"/>
      <point x="705" y="908"/>
      <point x="500" y="908" type="curve" smooth="yes"/>
      <point x="298" y="908"/>
      <point x="168" y="781"/>
      <point x="168" y="583" type="curve" smooth="yes"/>
      <point x="168" y="338"/>
      <point x="375" y="126"/>
      <point x="615" y="126" type="curve" smooth="yes"/>
      <point x="708" y="126"/>
      <point x="791" y="159"/>
    </contour>
  </outline>
</glyph>
<glyph name="r" format="2">
  <advance width="704"/>
  <unicode hex="0072"/>
  <outline>
    <contour>
      <point x="704" y="780" type="line"/>
      <point x="384" y="780" type="line"/>
      <point x="384" y="860" type="line"/>
      <point x="572" y="1000" type="line"/>
      <point x="644" y="1000" type="line"/>
    </contour>
    <contour>
      <point x="80" y="1000" type="line"/>
      <point x="324" y="1000" type="line"/>
      <point x="324" y="0" type="line"/>
      <point x="80" y="0" type="line"/>
    </contour>
  </outline>
</glyph>
<glyph name="s" format="2">
  <advance width="934"/>
  <unicode hex="0073"/>
  <outline>
    <contour>
      <point x="-108" y="0" type="line"/>
      <point x="134" y="187"/>
      <point x="213" y="310"/>
      <point x="650" y="1102" type="curve"/>
      <point x="694" y="1102" type="line"/>
      <point x="362" y="522"/>
      <point x="209" y="231"/>
      <point x="114" y="0" type="curve"/>
    </contour>
    <contour>
      <point x="622" y="984" type="line"/>
      <point x="465" y="984"/>
      <point x="386" y="949"/>
      <point x="386" y="875" type="curve" smooth="yes"/>
      <point x="386" y="680"/>
      <point x="864" y="656"/>
      <point x="864" y="273" type="curve" smooth="yes"/>
      <point x="864" y="87"/>
      <point x="732" y="-24"/>
      <point x="511" y="-24" type="curve" smooth="yes"/>
      <point x="458" y="-24"/>
      <point x="357" y="-13"/>
      <point x="282" y="0" type="curve"/>
      <point x="382" y="268" type="line"/>
      <point x="445" y="164"/>
      <point x="583" y="78"/>
      <point x="688" y="78" type="curve" smooth="yes"/>
      <point x="738" y="78"/>
      <point x="766" y="95"/>
      <point x="766" y="124" type="curve" smooth="yes"/>
      <point x="766" y="269"/>
      <point x="156" y="411"/>
      <point x="156" y="746" type="curve" smooth="yes"/>
      <point x="156" y="923"/>
      <point x="348" y="1020"/>
      <point x="630" y="1020" type="curve"/>
    </contour>
  </outline>
</glyph>
<glyph name="t" format="2">
  <advance width="704"/>
  <unicode hex="0074"/>
  <outline>
    <contour>
      <point x="40" y="894" type="curve"/>
      <point x="40" y="882" type="line"/>
      <point x="120" y="882" type="line"/>
      <point x="120" y="270" type="line" smooth="yes"/>
      <point x="120" y="206"/>
      <point x="94" y="176"/>
      <point x="40" y="176" type="curve"/>
      <point x="40" y="166" type="line"/>
      <point x="150" y="113"/>
      <point x="234" y="53"/>
      <point x="372" y="-70" type="curve"/>
      <point x="442" y="24"/>
      <point x="535" y="115"/>
      <point x="664" y="220" type="curve"/>
      <point x="664" y="238" type="line"/>
      <point x="581" y="182"/>
      <point x="496" y="202"/>
      <point x="496" y="278" type="curve" smooth="yes"/>
      <point x="496" y="882" type="line"/>
      <point x="664" y="882" type="line"/>
      <point x="664" y="1000" type="line"/>
      <point x="452" y="1000" type="line"/>
      <point x="482" y="1111"/>
      <point x="502" y="1215"/>
      <point x="524" y="1348" type="curve"/>
      <point x="512" y="1352" type="line"/>
      <point x="405" y="1126"/>
      <point x="267" y="992"/>
    </contour>
  </outline>
</glyph>
<glyph name="v" format="2">
  <advance width="1132"/>
  <unicode hex="0076"/>
  <outline>
    <contour>
      <point x="952" y="870" type="curve" smooth="yes"/>
      <point x="980" y="870"/>
      <point x="1002" y="892"/>
      <point x="1002" y="920" type="curve" smooth="yes"/>
      <point x="1002" y="948"/>
      <point x="980" y="970"/>
      <point x="952" y="970" type="curve" smooth="yes"/>
      <point x="924" y="970"/>
      <point x="902" y="948"/>
      <point x="902" y="920" type="curve" smooth="yes"/>
      <point x="902" y="892"/>
      <point x="924" y="870"/>
    </contour>
    <contour>
      <point x="566" y="30" type="curve" smooth="yes"/>
      <point x="594" y="30"/>
      <point x="616" y="52"/>
      <point x="616" y="80" type="curve" smooth="yes"/>
      <point x="616" y="108"/>
      <point x="594" y="130"/>
      <point x="566" y="130" type="curve" smooth="yes"/>
      <point x="538" y="130"/>
      <point x="516" y="108"/>
      <point x="516" y="80" type="curve" smooth="yes"/>
      <point x="516" y="52"/>
      <point x="538" y="30"/>
    </contour>
    <contour>
      <point x="180" y="870" type="curve" smooth="yes"/>
      <point x="208" y="870"/>
      <point x="230" y="892"/>
      <point x="230" y="920" type="curve" smooth="yes"/>
      <point x="230" y="948"/>
      <point x="208" y="970"/>
      <point x="180" y="970" type="curve" smooth="yes"/>
      <point x="152" y="970"/>
      <point x="130" y="948"/>
      <point x="130" y="920" type="curve" smooth="yes"/>
      <point x="130" y="892"/>
      <point x="152" y="870"/>
    </contour>
    <contour>
      <point x="470" y="240" type="curve" smooth="yes"/>
      <point x="498" y="240"/>
      <point x="520" y="262"/>
      <point x="520" y="290" type="curve" smooth="yes"/>
      <point x="520" y="318"/>
      <point x="498" y="340"/>
      <point x="470" y="340" type="curve" smooth="yes"/>
      <point x="442" y="340"/>
      <point x="420" y="318"/>
      <point x="420" y="290" type="curve" smooth="yes"/>
      <point x="420" y="262"/>
      <point x="442" y="240"/>
    </contour>
    <contour>
      <point x="372" y="450" type="curve" smooth="yes"/>
      <point x="400" y="450"/>
      <point x="422" y="472"/>
      <point x="422" y="500" type="curve" smooth="yes"/>
      <point x="422" y="528"/>
      <point x="400" y="550"/>
      <point x="372" y="550" type="curve" smooth="yes"/>
      <point x="344" y="550"/>
      <point x="322" y="528"/>
      <point x="322" y="500" type="curve" smooth="yes"/>
      <point x="322" y="472"/>
      <point x="344" y="450"/>
    </contour>
    <contour>
      <point x="276" y="660" type="curve" smooth="yes"/>
      <point x="304" y="660"/>
      <point x="326" y="682"/>
      <point x="326" y="710" type="curve" smooth="yes"/>
      <point x="326" y="738"/>
      <point x="304" y="760"/>
      <point x="276" y="760" type="curve" smooth="yes"/>
      <point x="248" y="760"/>
      <point x="226" y="738"/>
      <point x="226" y="710" type="curve" smooth="yes"/>
      <point x="226" y="682"/>
      <point x="248" y="660"/>
    </contour>
    <contour>
      <point x="662" y="240" type="curve" smooth="yes"/>
      <point x="690" y="240"/>
      <point x="712" y="262"/>
      <point x="712" y="290" type="curve" smooth="yes"/>
      <point x="712" y="318"/>
      <point x="690" y="340"/>
      <point x="662" y="340" type="curve" smooth="yes"/>
      <point x="634" y="340"/>
      <point x="612" y="318"/>
      <point x="612" y="290" type="curve" smooth="yes"/>
      <point x="612" y="262"/>
      <point x="634" y="240"/>
    </contour>
    <contour>
      <point x="760" y="450" type="curve" smooth="yes"/>
      <point x="788" y="450"/>
      <point x="810" y="472"/>
      <point x="810" y="500" type="curve" smooth="yes"/>
      <point x="810" y="528"/>
      <point x="788" y="550"/>
      <point x="760" y="550" type="curve" smooth="yes"/>
      <point x="732" y="550"/>
      <point x="710" y="528"/>
      <point x="710" y="500" type="curve" smooth="yes"/>
      <point x="710" y="472"/>
      <point x="732" y="450"/>
    </contour>
    <contour>
      <point x="856" y="660" type="curve" smooth="yes"/>
      <point x="884" y="660"/>
      <point x="906" y="682"/>
      <point x="906" y="710" type="curve" smooth="yes"/>
      <point x="906" y="738"/>
      <point x="884" y="760"/>
      <point x="856" y="760" type="curve" smooth="yes"/>
      <point x="828" y="760"/>
      <point x="806" y="738"/>
      <point x="806" y="710" type="curve" smooth="yes"/>
      <point x="806" y="682"/>
      <point x="828" y="660"/>
    </contour>
    <contour>
      <point x="952" y="1020" type="curve" smooth="yes"/>
      <point x="1008" y="1020"/>
      <point x="1052" y="976"/>
      <point x="1052" y="920" type="curve" smooth="yes"/>
      <point x="1052" y="906"/>
      <point x="1048" y="892"/>
      <point x="1042" y="878" type="curve" smooth="yes"/>
      <point x="656" y="38" type="line" smooth="yes"/>
      <point x="640" y="4"/>
      <point x="606" y="-20"/>
      <point x="566" y="-20" type="curve" smooth="yes"/>
      <point x="526" y="-20"/>
      <point x="492" y="4"/>
      <point x="476" y="38" type="curve" smooth="yes"/>
      <point x="90" y="878" type="line" smooth="yes"/>
      <point x="84" y="892"/>
      <point x="80" y="906"/>
      <point x="80" y="920" type="curve" smooth="yes"/>
      <point x="80" y="976"/>
      <point x="124" y="1020"/>
      <point x="180" y="1020" type="curve" smooth="yes"/>
      <point x="220" y="1020"/>
      <point x="254" y="996"/>
      <point x="270" y="962" type="curve" smooth="yes"/>
      <point x="566" y="320" type="line"/>
      <point x="862" y="962" type="line" smooth="yes"/>
      <point x="878" y="996"/>
      <point x="912" y="1020"/>
    </contour>
  </outline>
</glyph>
<glyph name="w" format="2">
  <advance width="1568"/>
  <unicode hex="0077"/>
  <outline>
    <contour>
      <point x="792" y="1040" type="line"/>
      <point x="780" y="1040" type="line"/>
      <point x="482" y="372" type="line"/>
      <point x="224" y="1000" type="line"/>
      <point x="20" y="1000" type="line"/>
      <point x="472" y="-60" type="line"/>
      <point x="484" y="-60" type="line"/>
      <point x="786" y="623" type="line"/>
      <point x="1076" y="-60" type="line"/>
      <point x="1088" y="-60" type="line"/>
      <point x="1548" y="1000" type="line"/>
      <point x="1348" y="1000" type="line"/>
      <point x="1078" y="372" type="line"/>
    </contour>
  </outline>
</glyph>
<glyph name="x" format="2">
  <advance width="1096"/>
  <unicode hex="0078"/>
  <outline>
    <contour>
      <point x="678" y="652" type="line"/>
      <point x="68" y="1020" type="line"/>
      <point x="68" y="560" type="line"/>
      <point x="386" y="368" type="line"/>
      <point x="28" y="0" type="line"/>
      <point x="568" y="0" type="line"/>
      <point x="384" y="302" type="line"/>
      <point x="425" y="344" type="line"/>
      <point x="1028" y="-20" type="line"/>
      <point x="1028" y="440" type="line"/>
      <point x="714" y="630" type="line"/>
      <point x="1068" y="1000" type="line"/>
      <point x="528" y="1000" type="line"/>
      <point x="720" y="696" type="line"/>
    </contour>
  </outline>
</glyph>
<glyph name="y" format="2">
  <advance width="912"/>
  <unicode hex="0079"/>
  <outline>
    <contour>
      <point x="10" y="1000" type="line"/>
      <point x="494" y="1000" type="line"/>
      <point x="494" y="916" type="line"/>
      <point x="378" y="916" type="line"/>
      <point x="520" y="318" type="line"/>
      <point x="682" y="916" type="line"/>
      <point x="558" y="916" type="line"/>
      <point x="558" y="1000" type="line"/>
      <point x="902" y="1000" type="line"/>
      <point x="902" y="916" type="line"/>
      <point x="778" y="916" type="line"/>
      <point x="404" y="-400" type="line"/>
      <point x="158" y="-400" type="line"/>
      <point x="158" y="-156" type="line"/>
      <point x="392" y="-156" type="line"/>
      <point x="410" y="-86" type="line"/>
      <point x="112" y="916" type="line"/>
      <point x="10" y="916" type="line"/>
    </contour>
  </outline>
</glyph>
<glyph name="z" format="2">
  <advance width="1252"/>
  <unicode hex="007A"/>
  <outline>
    <contour>
      <point x="814" y="500" type="line"/>
      <point x="1212" y="944" type="line"/>
      <point x="1212" y="1000" type="line"/>
      <point x="584" y="1000" type="line"/>
      <point x="260" y="624" type="line"/>
      <point x="188" y="624" type="line"/>
      <point x="504" y="1000" type="line"/>
      <point x="64" y="1000" type="line"/>
      <point x="64" y="544" type="line"/>
      <point x="302" y="544" type="line"/>
      <point x="640" y="920" type="line"/>
      <point x="718" y="920" type="line"/>
      <point x="40" y="156" type="line"/>
      <point x="40" y="100" type="line"/>
      <point x="438" y="100" type="line"/>
      <point x="40" y="-344" type="line"/>
      <point x="40" y="-400" type="line"/>
      <point x="668" y="-400" type="line"/>
      <point x="992" y="-24" type="line"/>
      <point x="1064" y="-24" type="line"/>
      <point x="748" y="-400" type="line"/>
      <point x="1188" y="-400" type="line"/>
      <point x="1188" y="56" type="line"/>
      <point x="950" y="56" type="line"/>
      <point x="612" y="-320" type="line"/>
      <point x="534" y="-320" type="line"/>
      <point x="1212" y="444" type="line"/>
      <point x="1212" y="500" type="line"/>
    </contour>
    <contour>
      <point x="552" y="180" type="line"/>
      <point x="476" y="180" type="line"/>
      <point x="701" y="420" type="line"/>
      <point x="776" y="420" type="line"/>
    </contour>
  </outline>
</glyph>
<glyph name="braceleft" format="2">
  <advance width="548"/>
  <unicode hex="007B"/>
  <outline>
    <contour>
      <point x="548" y="1380" type="line"/>
      <point x="274" y="1380"/>
      <point x="227" y="1187"/>
      <point x="227" y="979" type="curve" smooth="yes"/>
      <point x="227" y="857"/>
      <point x="242" y="730"/>
      <point x="242" y="628" type="curve" smooth="yes"/>
      <point x="242" y="568"/>
      <point x="235" y="517"/>
      <point x="213" y="483" type="curve"/>
      <point x="235" y="450"/>
      <point x="242" y="402"/>
      <point x="242" y="344" type="curve" smooth="yes"/>
      <point x="242" y="245"/>
      <point x="227" y="123"/>
      <point x="227" y="5" type="curve" smooth="yes"/>
      <point x="227" y="-195"/>
      <point x="274" y="-380"/>
      <point x="548" y="-380" type="curve"/>
      <point x="548" y="-378" type="line"/>
      <point x="375" y="-378"/>
      <point x="342" y="-243"/>
      <point x="342" y="-81" type="curve" smooth="yes"/>
      <point x="342" y="28"/>
      <point x="357" y="149"/>
      <point x="357" y="253" type="curve" smooth="yes"/>
      <point x="357" y="362"/>
      <point x="330" y="451"/>
      <point x="214" y="482" type="curve"/>
      <point x="336" y="514"/>
      <point x="361" y="615"/>
      <point x="361" y="737" type="curve" smooth="yes"/>
      <point x="361" y="838"/>
      <point x="351" y="951"/>
      <point x="351" y="1056" type="curve" smooth="yes"/>
      <point x="351" y="1230"/>
      <point x="380" y="1378"/>
      <point x="548" y="1378" type="curve"/>
    </contour>
    <contour>
      <point x="213" y="483" type="curve"/>
      <point x="194" y="441"/>
      <point x="163" y="416"/>
      <point x="114" y="416" type="curve" smooth="yes"/>
      <point x="65" y="416"/>
      <point x="40" y="446"/>
      <point x="40" y="482" type="curve" smooth="yes"/>
      <point x="40" y="512"/>
      <point x="65" y="548"/>
      <point x="114" y="548" type="curve" smooth="yes"/>
      <point x="163" y="548"/>
      <point x="194" y="524"/>
    </contour>
  </outline>
</glyph>
<glyph name="braceright" format="2">
  <advance width="548"/>
  <unicode hex="007D"/>
  <outline>
    <contour>
      <point x="0" y="1380" type="line"/>
      <point x="274" y="1380"/>
      <point x="321" y="1187"/>
      <point x="321" y="979" type="curve" smooth="yes"/>
      <point x="321" y="857"/>
      <point x="306" y="730"/>
      <point x="306" y="628" type="curve" smooth="yes"/>
      <point x="306" y="568"/>
      <point x="313" y="517"/>
      <point x="335" y="483" type="curve"/>
      <point x="313" y="450"/>
      <point x="306" y="402"/>
      <point x="306" y="344" type="curve" smooth="yes"/>
      <point x="306" y="245"/>
      <point x="321" y="123"/>
      <point x="321" y="5" type="curve" smooth="yes"/>
      <point x="321" y="-195"/>
      <point x="274" y="-380"/>
      <point x="0" y="-380" type="curve"/>
      <point x="0" y="-378" type="line"/>
      <point x="173" y="-378"/>
      <point x="206" y="-243"/>
      <point x="206" y="-81" type="curve" smooth="yes"/>
      <point x="206" y="28"/>
      <point x="191" y="149"/>
      <point x="191" y="253" type="curve" smooth="yes"/>
      <point x="191" y="362"/>
      <point x="218" y="451"/>
      <point x="334" y="482" type="curve"/>
      <point x="212" y="514"/>
      <point x="187" y="615"/>
      <point x="187" y="737" type="curve" smooth="yes"/>
      <point x="187" y="838"/>
      <point x="197" y="951"/>
      <point x="197" y="1056" type="curve" smooth="yes"/>
      <point x="197" y="1230"/>
      <point x="168" y="1378"/>
      <point x="0" y="1378" type="curve"/>
    </contour>
    <contour>
      <point x="335" y="483" type="curve"/>
      <point x="354" y="441"/>
      <point x="385" y="416"/>
      <point x="434" y="416" type="curve" smooth="yes"/>
      <point x="483" y="416"/>
      <point x="508" y="446"/>
      <point x="508" y="482" type="curve" smooth="yes"/>
      <point x="508" y="512"/>
      <point x="483" y="548"/>
      <point x="434" y="548" type="curve" smooth="yes"/>
      <point x="385" y="548"/>
      <point x="354" y="524"/>
    </contour>
  </outline>
</glyph>
<glyph name="asciitilde" format="2">
  <advance width="1080"/>
  <unicode hex="007E"/>
  <outline>
    <contour>
      <point x="60" y="464" type="line"/>
      <point x="94" y="697"/>
      <point x="204" y="830"/>
      <point x="363" y="830" type="curve" smooth="yes"/>
      <point x="528" y="830"/>
      <point x="638" y="660"/>
      <point x="763" y="660" type="curve" smooth="yes"/>
      <point x="840" y="660"/>
      <point x="877" y="705"/>
      <point x="910" y="842" type="curve"/>
      <point x="1020" y="842" type="line"/>
      <point x="995" y="585"/>
      <point x="902" y="458"/>
      <point x="738" y="458" type="curve" smooth="yes"/>
      <point x="558" y="458"/>
      <point x="497" y="634"/>
      <point x="317" y="634" type="curve" smooth="yes"/>
      <point x="251" y="634"/>
      <point x="186" y="586"/>
      <point x="172" y="464" type="curve"/>
    </contour>
  </outline>
</glyph>
<glyph name="exclamdown" format="2">
  <advance width="548"/>
  <unicode hex="00A1"/>
  <outline>
    <contour>
      <point x="448" y="686" type="line"/>
      <point x="100" y="686" type="line"/>
      <point x="100" y="1000" type="line"/>
      <point x="448" y="1000" type="line"/>
    </contour>
    <contour>
      <point x="468" y="-300" type="line"/>
      <point x="80" y="-300" type="line"/>
      <point x="140" y="582" type="line"/>
      <point x="408" y="582" type="line"/>
    </contour>
  </outline>
</glyph>
<glyph name="cent" format="2">
  <advance width="826"/>
  <unicode hex="00A2"/>
  <outline>
    <contour>
      <point x="446" y="150" type="line"/>
      <point x="522" y="158" type="line"/>
      <point x="624" y="-66" type="line"/>
      <point x="336" y="-54" type="line"/>
    </contour>
    <contour>
      <point x="458" y="1066" type="line"/>
      <point x="382" y="1256" type="line"/>
      <point x="636" y="1288" type="line"/>
      <point x="534" y="1064" type="line"/>
    </contour>
    <contour>
      <point x="730" y="1006" type="line"/>
      <point x="404" y="1018" type="line"/>
      <point x="164" y="880" type="line"/>
      <point x="60" y="614" type="line"/>
      <point x="128" y="376" type="line"/>
      <point x="340" y="188" type="line"/>
      <point x="786" y="224" type="line"/>
      <point x="716" y="538" type="line"/>
      <point x="492" y="422" type="line"/>
      <point x="330" y="518" type="line"/>
      <point x="340" y="718" type="line"/>
      <point x="516" y="804" type="line"/>
      <point x="712" y="710" type="line"/>
    </contour>
  </outline>
</glyph>
<glyph name="sterling" format="2">
  <advance width="1106"/>
  <unicode hex="00A3"/>
  <outline>
    <contour>
      <point x="146" y="338" type="curve"/>
      <point x="154" y="340" type="line"/>
      <point x="152" y="346"/>
      <point x="150" y="358"/>
      <point x="150" y="369" type="curve" smooth="yes"/>
      <point x="150" y="432"/>
      <point x="204" y="464"/>
      <point x="308" y="464" type="curve" smooth="yes"/>
      <point x="431" y="464"/>
      <point x="526" y="414"/>
      <point x="649" y="414" type="curve" smooth="yes"/>
      <point x="802" y="414"/>
      <point x="915" y="501"/>
      <point x="986" y="672" type="curve"/>
      <point x="974" y="672" type="line"/>
      <point x="937" y="581"/>
      <point x="847" y="538"/>
      <point x="695" y="538" type="curve" smooth="yes"/>
      <point x="552" y="538"/>
      <point x="533" y="582"/>
      <point x="390" y="582" type="curve" smooth="yes"/>
      <point x="231" y="582"/>
      <point x="130" y="517"/>
      <point x="130" y="415" type="curve" smooth="yes"/>
      <point x="130" y="391"/>
      <point x="135" y="366"/>
    </contour>
    <contour>
      <point x="944" y="-38" type="curve" smooth="yes"/>
      <point x="686" y="-38"/>
      <point x="625" y="146"/>
      <point x="367" y="146" type="curve" smooth="yes"/>
      <point x="293" y="146"/>
      <point x="200" y="125"/>
      <point x="50" y="76" type="curve"/>
      <point x="50" y="74"/>
      <point x="50" y="74"/>
      <point x="50" y="74" type="curve"/>
      <point x="438" y="190"/>
      <point x="630" y="315"/>
      <point x="630" y="546" type="curve" smooth="yes"/>
      <point x="630" y="734"/>
      <point x="498" y="847"/>
      <point x="498" y="1072" type="curve" smooth="yes"/>
      <point x="498" y="1205"/>
      <point x="539" y="1286"/>
      <point x="606" y="1286" type="curve" smooth="yes"/>
      <point x="671" y="1286"/>
      <point x="716" y="1209"/>
      <point x="716" y="1097" type="curve" smooth="yes"/>
      <point x="716" y="911"/>
      <point x="570" y="769"/>
      <point x="328" y="718" type="curve"/>
      <point x="330" y="706" type="line"/>
      <point x="654" y="783"/>
      <point x="846" y="926"/>
      <point x="846" y="1090" type="curve" smooth="yes"/>
      <point x="846" y="1219"/>
      <point x="746" y="1306"/>
      <point x="600" y="1306" type="curve" smooth="yes"/>
      <point x="440" y="1306"/>
      <point x="338" y="1202"/>
      <point x="338" y="1036" type="curve" smooth="yes"/>
      <point x="338" y="843"/>
      <point x="490" y="707"/>
      <point x="490" y="514" type="curve" smooth="yes"/>
      <point x="490" y="313"/>
      <point x="351" y="177"/>
      <point x="40" y="74" type="curve"/>
      <point x="66" y="-30" type="line"/>
      <point x="150" y="-12"/>
      <point x="231" y="-2"/>
      <point x="284" y="-2" type="curve" smooth="yes"/>
      <point x="519" y="-2"/>
      <point x="560" y="-138"/>
      <point x="795" y="-138" type="curve" smooth="yes"/>
      <point x="959" y="-138"/>
      <point x="1109" y="-50"/>
      <point x="1158" y="74" type="curve"/>
      <point x="1148" y="78" type="line"/>
      <point x="1101" y="-4"/>
      <point x="1041" y="-38"/>
    </contour>
  </outline>
</glyph>
<glyph name="yen" format="2">
  <advance width="1304"/>
  <unicode hex="00A5"/>
  <outline>
    <contour>
      <point x="160" y="232" type="line"/>
      <point x="1144" y="232" type="line"/>
      <point x="1144" y="0" type="line"/>
      <point x="160" y="0" type="line"/>
    </contour>
    <contour>
      <point x="160" y="512" type="line"/>
      <point x="1144" y="512" type="line"/>
      <point x="1144" y="280" type="line"/>
      <point x="160" y="280" type="line"/>
    </contour>
    <contour>
      <point x="1244" y="1300" type="line"/>
      <point x="1244" y="1180" type="line"/>
      <point x="1068" y="560" type="line"/>
      <point x="612" y="560" type="line"/>
      <point x="788" y="1300" type="line"/>
    </contour>
    <contour>
      <point x="60" y="1300" type="line"/>
      <point x="516" y="1300" type="line"/>
      <point x="692" y="560" type="line"/>
      <point x="236" y="560" type="line"/>
      <point x="60" y="1180" type="line"/>
    </contour>
    <contour>
      <point x="416" y="560" type="line"/>
      <point x="888" y="560" type="line"/>
      <point x="888" y="0" type="line"/>
      <point x="416" y="0" type="line"/>
    </contour>
  </outline>
</glyph>
<glyph name="section" format="2">
  <advance width="1324"/>
  <unicode hex="00A7"/>
  <outline>
    <contour>
      <point x="60" y="0" type="line"/>
      <point x="230" y="0" type="line"/>
      <point x="230" y="-20" type="line" smooth="yes"/>
      <point x="230" y="-166"/>
      <point x="328" y="-260"/>
      <point x="478" y="-260" type="curve" smooth="yes"/>
      <point x="621" y="-260"/>
      <point x="708" y="-191"/>
      <point x="708" y="-76" type="curve" smooth="yes"/>
      <point x="708" y="156"/>
      <point x="76" y="175"/>
      <point x="76" y="500" type="curve" smooth="yes"/>
      <point x="76" y="702"/>
      <point x="252" y="836"/>
      <point x="510" y="836" type="curve"/>
      <point x="471" y="878"/>
      <point x="448" y="925"/>
      <point x="448" y="980" type="curve" smooth="yes"/>
      <point x="448" y="1182"/>
      <point x="601" y="1310"/>
      <point x="842" y="1310" type="curve" smooth="yes"/>
      <point x="1097" y="1310"/>
      <point x="1264" y="1165"/>
      <point x="1264" y="942" type="curve" smooth="yes"/>
      <point x="1264" y="910" type="line"/>
      <point x="1094" y="910" type="line"/>
      <point x="1094" y="930" type="line" smooth="yes"/>
      <point x="1094" y="1076"/>
      <point x="996" y="1170"/>
      <point x="846" y="1170" type="curve" smooth="yes"/>
      <point x="703" y="1170"/>
      <point x="616" y="1101"/>
      <point x="616" y="986" type="curve" smooth="yes"/>
      <point x="616" y="754"/>
      <point x="1248" y="735"/>
      <point x="1248" y="410" type="curve" smooth="yes"/>
      <point x="1248" y="203"/>
      <point x="1078" y="66"/>
      <point x="825" y="66" type="curve"/>
      <point x="857" y="27"/>
      <point x="876" y="-18"/>
      <point x="876" y="-70" type="curve" smooth="yes"/>
      <point x="876" y="-272"/>
      <point x="723" y="-400"/>
      <point x="482" y="-400" type="curve" smooth="yes"/>
      <point x="227" y="-400"/>
      <point x="60" y="-255"/>
      <point x="60" y="-32" type="curve" smooth="yes"/>
    </contour>
    <contour>
      <point x="709" y="668" type="curve" smooth="yes"/>
      <point x="659" y="690"/>
      <point x="601" y="708"/>
      <point x="504" y="708" type="curve" smooth="yes"/>
      <point x="368" y="708"/>
      <point x="248" y="635"/>
      <point x="248" y="520" type="curve" smooth="yes"/>
      <point x="248" y="377"/>
      <point x="454" y="307"/>
      <point x="639" y="230" type="curve" smooth="yes"/>
      <point x="677" y="214"/>
      <point x="734" y="202"/>
      <point x="820" y="202" type="curve" smooth="yes"/>
      <point x="956" y="202"/>
      <point x="1076" y="275"/>
      <point x="1076" y="390" type="curve" smooth="yes"/>
      <point x="1076" y="527"/>
      <point x="885" y="591"/>
    </contour>
  </outline>
</glyph>
<glyph name="copyright" format="2">
  <advance width="1644"/>
  <unicode hex="00A9"/>
  <outline>
    <contour>
      <point x="822" y="1380" type="curve" smooth="yes"/>
      <point x="354" y="1380"/>
      <point x="60" y="1103"/>
      <point x="60" y="662" type="curve" smooth="yes"/>
      <point x="60" y="234"/>
      <point x="370" y="-60"/>
      <point x="822" y="-60" type="curve" smooth="yes"/>
      <point x="1274" y="-60"/>
      <point x="1584" y="234"/>
      <point x="1584" y="662" type="curve" smooth="yes"/>
      <point x="1584" y="1103"/>
      <point x="1290" y="1380"/>
    </contour>
    <contour>
      <point x="818" y="60" type="curve" smooth="yes"/>
      <point x="439" y="60"/>
      <point x="180" y="304"/>
      <point x="180" y="662" type="curve" smooth="yes"/>
      <point x="180" y="1029"/>
      <point x="427" y="1260"/>
      <point x="818" y="1260" type="curve" smooth="yes"/>
      <point x="1214" y="1260"/>
      <point x="1464" y="1029"/>
      <point x="1464" y="662" type="curve" smooth="yes"/>
      <point x="1464" y="304"/>
      <point x="1202" y="60"/>
    </contour>
    <contour>
      <point x="1176" y="1120" type="line"/>
      <point x="1176" y="694" type="line"/>
      <point x="830" y="694" type="line"/>
      <point x="830" y="748" type="line"/>
      <point x="802" y="748" type="line" smooth="yes"/>
      <point x="739" y="748"/>
      <point x="700" y="715"/>
      <point x="700" y="662" type="curve" smooth="yes"/>
      <point x="700" y="610"/>
      <point x="743" y="572"/>
      <point x="802" y="572" type="curve" smooth="yes"/>
      <point x="1176" y="572" type="line"/>
      <point x="1176" y="200" type="line"/>
      <point x="822" y="200" type="line" smooth="yes"/>
      <point x="524" y="200"/>
      <point x="320" y="388"/>
      <point x="320" y="662" type="curve" smooth="yes"/>
      <point x="320" y="943"/>
      <point x="514" y="1120"/>
      <point x="822" y="1120" type="curve" smooth="yes"/>
    </contour>
    <contour>
      <point x="1056" y="794" type="line"/>
      <point x="1056" y="1000" type="line"/>
      <point x="826" y="1000" type="line" smooth="yes"/>
      <point x="589" y="1000"/>
      <point x="440" y="869"/>
      <point x="440" y="662" type="curve" smooth="yes"/>
      <point x="440" y="459"/>
      <point x="597" y="320"/>
      <point x="826" y="320" type="curve" smooth="yes"/>
      <point x="1056" y="320" type="line"/>
      <point x="1056" y="444" type="line"/>
      <point x="798" y="444" type="line" smooth="yes"/>
      <point x="672" y="444"/>
      <point x="572" y="540"/>
      <point x="572" y="662" type="curve" smooth="yes"/>
      <point x="572" y="788"/>
      <point x="665" y="876"/>
      <point x="798" y="876" type="curve" smooth="yes"/>
      <point x="956" y="876" type="line"/>
      <point x="956" y="794" type="line"/>
    </contour>
  </outline>
</glyph>
<glyph name="guillemotleft" format="2">
  <advance width="1072"/>
  <unicode hex="00AB"/>
  <outline>
    <contour>
      <point x="1052" y="1000" type="line"/>
      <point x="792" y="1000" type="line"/>
      <point x="500" y="568" type="line"/>
      <point x="500" y="534" type="line"/>
      <point x="792" y="102" type="line"/>
      <point x="1052" y="102" type="line"/>
      <point x="719" y="551" type="line"/>
    </contour>
    <contour>
      <point x="612" y="1000" type="line"/>
      <point x="352" y="1000" type="line"/>
      <point x="60" y="568" type="line"/>
      <point x="60" y="534" type="line"/>
      <point x="352" y="102" type="line"/>
      <point x="612" y="102" type="line"/>
      <point x="279" y="551" type="line"/>
    </contour>
  </outline>
</glyph>
<glyph name="registered" format="2">
  <advance width="884"/>
  <unicode hex="00AE"/>
  <outline>
    <contour>
      <point x="504" y="962" type="line"/>
      <point x="530" y="962" type="line"/>
      <point x="590" y="1020" type="line"/>
      <point x="590" y="1120" type="line"/>
      <point x="522" y="1186" type="line"/>
      <point x="290" y="1186" type="line"/>
      <point x="290" y="1108" type="line"/>
      <point x="480" y="1108" type="line"/>
      <point x="504" y="1086" type="line"/>
    </contour>
    <contour>
      <point x="290" y="1088" type="line"/>
      <point x="290" y="730" type="line"/>
      <point x="374" y="730" type="line"/>
      <point x="374" y="1088" type="line"/>
    </contour>
    <contour>
      <point x="396" y="942" type="line"/>
      <point x="396" y="864" type="line"/>
      <point x="472" y="864" type="line"/>
      <point x="532" y="730" type="line"/>
      <point x="610" y="730" type="line"/>
      <point x="610" y="756" type="line"/>
      <point x="530" y="942" type="line"/>
    </contour>
    <contour>
      <point x="442" y="1316" type="curve" smooth="yes"/>
      <point x="208" y="1316"/>
      <point x="60" y="1176"/>
      <point x="60" y="956" type="curve" smooth="yes"/>
      <point x="60" y="742"/>
      <point x="216" y="596"/>
      <point x="442" y="596" type="curve" smooth="yes"/>
      <point x="668" y="596"/>
      <point x="824" y="742"/>
      <point x="824" y="956" type="curve" smooth="yes"/>
      <point x="824" y="1176"/>
      <point x="676" y="1316"/>
    </contour>
    <contour>
      <point x="440" y="656" type="curve" smooth="yes"/>
      <point x="250" y="656"/>
      <point x="120" y="778"/>
      <point x="120" y="956" type="curve" smooth="yes"/>
      <point x="120" y="1140"/>
      <point x="244" y="1256"/>
      <point x="440" y="1256" type="curve" smooth="yes"/>
      <point x="638" y="1256"/>
      <point x="764" y="1140"/>
      <point x="764" y="956" type="curve" smooth="yes"/>
      <point x="764" y="778"/>
      <point x="632" y="656"/>
    </contour>
  </outline>
</glyph>
<glyph name="degree" format="2">
  <advance width="650"/>
  <unicode hex="00B0"/>
  <outline>
    <contour>
      <point x="240" y="1058" type="curve" smooth="yes"/>
      <point x="240" y="1011"/>
      <point x="271" y="974"/>
      <point x="324" y="974" type="curve" smooth="yes"/>
      <point x="377" y="974"/>
      <point x="408" y="1011"/>
      <point x="408" y="1058" type="curve" smooth="yes"/>
      <point x="408" y="1105"/>
      <point x="377" y="1144"/>
      <point x="324" y="1144" type="curve" smooth="yes"/>
      <point x="271" y="1144"/>
      <point x="240" y="1105"/>
    </contour>
    <contour>
      <point x="60" y="1056" type="curve" smooth="yes"/>
      <point x="60" y="1192"/>
      <point x="157" y="1300"/>
      <point x="324" y="1300" type="curve" smooth="yes"/>
      <point x="491" y="1300"/>
      <point x="590" y="1192"/>
      <point x="590" y="1056" type="curve" smooth="yes"/>
      <point x="590" y="920"/>
      <point x="491" y="810"/>
      <point x="324" y="810" type="curve" smooth="yes"/>
      <point x="157" y="810"/>
      <point x="60" y="920"/>
    </contour>
  </outline>
</glyph>
<glyph name="paragraph" format="2">
  <advance width="1476"/>
  <unicode hex="00B6"/>
  <outline>
    <contour>
      <point x="1036" y="1326" type="line"/>
      <point x="1248" y="1298" type="line"/>
      <point x="1030" y="-210" type="line"/>
      <point x="864" y="-194" type="line"/>
    </contour>
    <contour>
      <point x="644" y="1354" type="line"/>
      <point x="860" y="1338" type="line"/>
      <point x="666" y="-350" type="line"/>
      <point x="498" y="-340" type="line"/>
    </contour>
    <contour>
      <point x="1454" y="1226" type="line"/>
      <point x="1476" y="1150" type="line"/>
      <point x="640" y="984" type="line" smooth="yes"/>
      <point x="385" y="933"/>
      <point x="281" y="824"/>
      <point x="281" y="661" type="curve" smooth="yes"/>
      <point x="281" y="574"/>
      <point x="342" y="487"/>
      <point x="446" y="428" type="curve"/>
      <point x="284" y="384" type="line"/>
      <point x="153" y="463"/>
      <point x="80" y="546"/>
      <point x="80" y="665" type="curve" smooth="yes"/>
      <point x="80" y="854"/>
      <point x="253" y="983"/>
      <point x="574" y="1048" type="curve" smooth="yes"/>
    </contour>
  </outline>
</glyph>
<glyph name="guillemotright" format="2">
  <advance width="1072"/>
  <unicode hex="00BB"/>
  <outline>
    <contour>
      <point x="20" y="102" type="line"/>
      <point x="280" y="102" type="line"/>
      <point x="572" y="534" type="line"/>
      <point x="572" y="568" type="line"/>
      <point x="280" y="1000" type="line"/>
      <point x="20" y="1000" type="line"/>
      <point x="353" y="551" type="line"/>
    </contour>
    <contour>
      <point x="460" y="102" type="line"/>
      <point x="720" y="102" type="line"/>
      <point x="1012" y="534" type="line"/>
      <point x="1012" y="568" type="line"/>
      <point x="720" y="1000" type="line"/>
      <point x="460" y="1000" type="line"/>
      <point x="793" y="551" type="line"/>
    </contour>
  </outline>
</glyph>
<glyph name="questiondown" format="2">
  <advance width="1096"/>
  <unicode hex="00BF"/>
  <outline>
    <contour>
      <point x="334" y="826" type="line"/>
      <point x="526" y="1018" type="line"/>
      <point x="720" y="838" type="line"/>
      <point x="528" y="646" type="line"/>
    </contour>
    <contour>
      <point x="460" y="-310" type="curve" smooth="yes"/>
      <point x="220" y="-310"/>
      <point x="60" y="-204"/>
      <point x="60" y="-44" type="curve" smooth="yes"/>
      <point x="60" y="57"/>
      <point x="116" y="162"/>
      <point x="222" y="224" type="curve" smooth="yes"/>
      <point x="426" y="344" type="line"/>
      <point x="100" y="344" type="line"/>
      <point x="238" y="584" type="line"/>
      <point x="884" y="584" type="line"/>
      <point x="738" y="344" type="line"/>
      <point x="560" y="298"/>
      <point x="409" y="239"/>
      <point x="296" y="168" type="curve"/>
      <point x="286" y="144"/>
      <point x="280" y="115"/>
      <point x="280" y="87" type="curve" smooth="yes"/>
      <point x="280" y="-14"/>
      <point x="388" y="-66"/>
      <point x="593" y="-66" type="curve" smooth="yes"/>
      <point x="736" y="-66"/>
      <point x="865" y="-37"/>
      <point x="1026" y="30" type="curve"/>
      <point x="844" y="-250" type="line"/>
      <point x="694" y="-291"/>
      <point x="572" y="-310"/>
    </contour>
  </outline>
</glyph>
<glyph name="Agrave" format="2">
  <advance width="1700"/>
  <unicode hex="00C0"/>
  <outline>
    <contour>
      <point x="474" y="1700" type="line"/>
      <point x="1018" y="1600" type="line"/>
      <point x="1018" y="1376" type="line"/>
      <point x="858" y="1376" type="line"/>
      <point x="858" y="1421"/>
      <point x="831" y="1442"/>
      <point x="774" y="1442" type="curve" smooth="yes"/>
      <point x="474" y="1442" type="line"/>
    </contour>
    <contour>
      <point x="354" y="1300" type="line"/>
      <point x="1142" y="1300" type="line"/>
      <point x="1476" y="476" type="line" smooth="yes"/>
      <point x="1497" y="425"/>
      <point x="1519" y="404"/>
      <point x="1554" y="404" type="curve" smooth="yes"/>
      <point x="1600" y="404" type="line"/>
      <point x="1600" y="0" type="line"/>
      <point x="768" y="0" type="line"/>
      <point x="768" y="404" type="line"/>
      <point x="820" y="404" type="line" smooth="yes"/>
      <point x="854" y="404"/>
      <point x="866" y="438"/>
      <point x="848" y="482" type="curve" smooth="yes"/>
      <point x="832" y="520" type="line"/>
      <point x="507" y="520" type="line"/>
      <point x="498" y="492" type="line" smooth="yes"/>
      <point x="482" y="443"/>
      <point x="496" y="404"/>
      <point x="529" y="404" type="curve" smooth="yes"/>
      <point x="672" y="404" type="line"/>
      <point x="672" y="0" type="line"/>
      <point x="100" y="0" type="line"/>
      <point x="100" y="404" type="line"/>
      <point x="249" y="404" type="line" smooth="yes"/>
      <point x="290" y="404"/>
      <point x="320" y="434"/>
      <point x="342" y="498" type="curve" smooth="yes"/>
      <point x="460" y="834" type="line" smooth="yes"/>
      <point x="472" y="869"/>
      <point x="454" y="896"/>
      <point x="419" y="896" type="curve" smooth="yes"/>
      <point x="354" y="896" type="line"/>
    </contour>
    <contour>
      <point x="774" y="662" type="line"/>
      <point x="678" y="896" type="line"/>
      <point x="631" y="896" type="line"/>
      <point x="554" y="662" type="line"/>
    </contour>
  </outline>
</glyph>
<glyph name="Adieresis" format="2">
  <advance width="1700"/>
  <unicode hex="00C4"/>
  <outline>
    <contour>
      <point x="774" y="1376" type="line"/>
      <point x="354" y="1376" type="line"/>
      <point x="354" y="1700" type="line"/>
      <point x="774" y="1700" type="line"/>
    </contour>
    <contour>
      <point x="862" y="1706" type="line"/>
      <point x="1282" y="1706" type="line"/>
      <point x="1282" y="1382" type="line"/>
      <point x="862" y="1382" type="line"/>
    </contour>
    <contour>
      <point x="354" y="1300" type="line"/>
      <point x="1142" y="1300" type="line"/>
      <point x="1476" y="476" type="line" smooth="yes"/>
      <point x="1496" y="426"/>
      <point x="1518" y="404"/>
      <point x="1554" y="404" type="curve" smooth="yes"/>
      <point x="1600" y="404" type="line"/>
      <point x="1600" y="0" type="line"/>
      <point x="768" y="0" type="line"/>
      <point x="768" y="404" type="line"/>
      <point x="820" y="404" type="line" smooth="yes"/>
      <point x="856" y="404"/>
      <point x="865" y="441"/>
      <point x="848" y="482" type="curve" smooth="yes"/>
      <point x="832" y="520" type="line"/>
      <point x="507" y="520" type="line"/>
      <point x="498" y="492" type="line" smooth="yes"/>
      <point x="485" y="451"/>
      <point x="490" y="404"/>
      <point x="529" y="404" type="curve" smooth="yes"/>
      <point x="672" y="404" type="line"/>
      <point x="672" y="0" type="line"/>
      <point x="100" y="0" type="line"/>
      <point x="100" y="404" type="line"/>
      <point x="249" y="404" type="line" smooth="yes"/>
      <point x="298" y="404"/>
      <point x="325" y="448"/>
      <point x="342" y="498" type="curve" smooth="yes"/>
      <point x="460" y="834" type="line" smooth="yes"/>
      <point x="472" y="868"/>
      <point x="456" y="896"/>
      <point x="419" y="896" type="curve" smooth="yes"/>
      <point x="354" y="896" type="line"/>
    </contour>
    <contour>
      <point x="774" y="662" type="line"/>
      <point x="678" y="896" type="line"/>
      <point x="631" y="896" type="line"/>
      <point x="554" y="662" type="line"/>
    </contour>
  </outline>
</glyph>
<glyph name="Aring" format="2">
  <advance width="1700"/>
  <unicode hex="00C5"/>
  <outline>
    <contour>
      <point x="698" y="1552" type="curve" smooth="yes"/>
      <point x="698" y="1518"/>
      <point x="725" y="1500"/>
      <point x="776" y="1500" type="curve" smooth="yes"/>
      <point x="827" y="1500"/>
      <point x="854" y="1518"/>
      <point x="854" y="1552" type="curve" smooth="yes"/>
      <point x="854" y="1586"/>
      <point x="827" y="1604"/>
      <point x="776" y="1604" type="curve" smooth="yes"/>
      <point x="725" y="1604"/>
      <point x="698" y="1586"/>
    </contour>
    <contour>
      <point x="412" y="1552" type="curve" smooth="yes"/>
      <point x="412" y="1680"/>
      <point x="554" y="1760"/>
      <point x="776" y="1760" type="curve" smooth="yes"/>
      <point x="998" y="1760"/>
      <point x="1140" y="1680"/>
      <point x="1140" y="1552" type="curve" smooth="yes"/>
      <point x="1140" y="1424"/>
      <point x="998" y="1344"/>
      <point x="776" y="1344" type="curve" smooth="yes"/>
      <point x="554" y="1344"/>
      <point x="412" y="1424"/>
    </contour>
    <contour>
      <point x="354" y="1300" type="line"/>
      <point x="1142" y="1300" type="line"/>
      <point x="1476" y="476" type="line" smooth="yes"/>
      <point x="1496" y="424"/>
      <point x="1518" y="404"/>
      <point x="1554" y="404" type="curve" smooth="yes"/>
      <point x="1600" y="404" type="line"/>
      <point x="1600" y="0" type="line"/>
      <point x="768" y="0" type="line"/>
      <point x="768" y="404" type="line"/>
      <point x="820" y="404" type="line" smooth="yes"/>
      <point x="854" y="404"/>
      <point x="866" y="438"/>
      <point x="848" y="482" type="curve" smooth="yes"/>
      <point x="832" y="520" type="line"/>
      <point x="506" y="520" type="line"/>
      <point x="498" y="492" type="line" smooth="yes"/>
      <point x="482" y="442"/>
      <point x="494" y="404"/>
      <point x="528" y="404" type="curve" smooth="yes"/>
      <point x="672" y="404" type="line"/>
      <point x="672" y="0" type="line"/>
      <point x="100" y="0" type="line"/>
      <point x="100" y="404" type="line"/>
      <point x="250" y="404" type="line" smooth="yes"/>
      <point x="290" y="404"/>
      <point x="320" y="434"/>
      <point x="342" y="498" type="curve" smooth="yes"/>
      <point x="460" y="834" type="line" smooth="yes"/>
      <point x="472" y="870"/>
      <point x="456" y="896"/>
      <point x="420" y="896" type="curve" smooth="yes"/>
      <point x="354" y="896" type="line"/>
    </contour>
    <contour>
      <point x="774" y="662" type="line"/>
      <point x="678" y="896" type="line"/>
      <point x="630" y="896" type="line"/>
      <point x="554" y="662" type="line"/>
    </contour>
  </outline>
</glyph>
<glyph name="AE" format="2">
  <advance width="1972"/>
  <unicode hex="00C6"/>
  <outline>
    <contour>
      <point x="868" y="662" type="line"/>
      <point x="868" y="896" type="line"/>
      <point x="820" y="896" type="line"/>
      <point x="648" y="662" type="line"/>
    </contour>
    <contour>
      <point x="1418" y="24" type="curve" smooth="yes"/>
      <point x="1664" y="24"/>
      <point x="1749" y="206"/>
      <point x="1782" y="584" type="curve"/>
      <point x="1804" y="584" type="line"/>
      <point x="1804" y="218"/>
      <point x="1852" y="48"/>
      <point x="1962" y="24" type="curve"/>
      <point x="1962" y="0" type="line"/>
      <point x="768" y="0" type="line"/>
      <point x="768" y="404" type="line"/>
      <point x="820" y="404" type="line" smooth="yes"/>
      <point x="852" y="404"/>
      <point x="868" y="426"/>
      <point x="868" y="450" type="curve" smooth="yes"/>
      <point x="868" y="520" type="line"/>
      <point x="552" y="520" type="line"/>
      <point x="538" y="492" type="line" smooth="yes"/>
      <point x="504" y="424"/>
      <point x="540" y="404"/>
      <point x="568" y="404" type="curve" smooth="yes"/>
      <point x="672" y="404" type="line"/>
      <point x="672" y="0" type="line"/>
      <point x="100" y="0" type="line"/>
      <point x="100" y="404" type="line"/>
      <point x="244" y="404" type="line" smooth="yes"/>
      <point x="313" y="404"/>
      <point x="336" y="436"/>
      <point x="376" y="498" type="curve" smooth="yes"/>
      <point x="590" y="834" type="line"/>
      <point x="602" y="868"/>
      <point x="586" y="896"/>
      <point x="550" y="896" type="curve" smooth="yes"/>
      <point x="450" y="896" type="line"/>
      <point x="450" y="1300" type="line"/>
      <point x="1922" y="1300" type="line"/>
      <point x="1922" y="1276" type="line"/>
      <point x="1832" y="1252"/>
      <point x="1796" y="1124"/>
      <point x="1796" y="836" type="curve"/>
      <point x="1774" y="836" type="line"/>
      <point x="1741" y="1148"/>
      <point x="1669" y="1276"/>
      <point x="1416" y="1276" type="curve" smooth="yes"/>
      <point x="1345" y="1276"/>
      <point x="1265" y="1268"/>
      <point x="1210" y="1256" type="curve"/>
      <point x="1210" y="720" type="line"/>
      <point x="1298" y="720" type="line" smooth="yes"/>
      <point x="1433" y="720"/>
      <point x="1542" y="778"/>
      <point x="1578" y="1056" type="curve"/>
      <point x="1600" y="1056" type="line"/>
      <point x="1558" y="808"/>
      <point x="1548" y="728"/>
      <point x="1548" y="524" type="curve" smooth="yes"/>
      <point x="1548" y="302" type="line"/>
      <point x="1526" y="302" type="line"/>
      <point x="1524" y="574"/>
      <point x="1415" y="692"/>
      <point x="1298" y="692" type="curve" smooth="yes"/>
      <point x="1210" y="692" type="line"/>
      <point x="1210" y="44" type="line"/>
      <point x="1270" y="32"/>
      <point x="1354" y="24"/>
    </contour>
  </outline>
</glyph>
<glyph name="Egrave" format="2">
  <advance width="1336"/>
  <unicode hex="00C8"/>
  <outline>
    <contour>
      <point x="552" y="1708" type="curve" smooth="yes"/>
      <point x="974" y="1392" type="line"/>
      <point x="968" y="1374" type="line"/>
      <point x="456" y="1508" type="line" smooth="yes"/>
      <point x="387" y="1527"/>
      <point x="342" y="1570"/>
      <point x="342" y="1626" type="curve" smooth="yes"/>
      <point x="342" y="1686"/>
      <point x="387" y="1740"/>
      <point x="456" y="1740" type="curve" smooth="yes"/>
      <point x="493" y="1740"/>
      <point x="525" y="1728"/>
    </contour>
    <contour>
      <point x="702" y="24" type="curve" smooth="yes"/>
      <point x="982" y="24"/>
      <point x="1102" y="176"/>
      <point x="1146" y="584" type="curve"/>
      <point x="1168" y="584" type="line"/>
      <point x="1168" y="218"/>
      <point x="1216" y="48"/>
      <point x="1326" y="24" type="curve"/>
      <point x="1326" y="0" type="line"/>
      <point x="40" y="0" type="line"/>
      <point x="40" y="24" type="line"/>
      <point x="204" y="24"/>
      <point x="234" y="58"/>
      <point x="234" y="236" type="curve" smooth="yes"/>
      <point x="234" y="1064" type="line" smooth="yes"/>
      <point x="234" y="1242"/>
      <point x="204" y="1276"/>
      <point x="40" y="1276" type="curve"/>
      <point x="40" y="1300" type="line"/>
      <point x="1286" y="1300" type="line"/>
      <point x="1286" y="1276" type="line"/>
      <point x="1196" y="1252"/>
      <point x="1160" y="1124"/>
      <point x="1160" y="836" type="curve"/>
      <point x="1138" y="836" type="line"/>
      <point x="1094" y="1170"/>
      <point x="990" y="1276"/>
      <point x="700" y="1276" type="curve" smooth="yes"/>
      <point x="636" y="1276"/>
      <point x="564" y="1268"/>
      <point x="514" y="1256" type="curve"/>
      <point x="514" y="720" type="line"/>
      <point x="602" y="720" type="line" smooth="yes"/>
      <point x="804" y="720"/>
      <point x="904" y="820"/>
      <point x="942" y="1056" type="curve"/>
      <point x="964" y="1056" type="line"/>
      <point x="920" y="796"/>
      <point x="912" y="720"/>
      <point x="912" y="524" type="curve" smooth="yes"/>
      <point x="912" y="302" type="line"/>
      <point x="890" y="302" type="line"/>
      <point x="890" y="540"/>
      <point x="776" y="692"/>
      <point x="602" y="692" type="curve" smooth="yes"/>
      <point x="514" y="692" type="line"/>
      <point x="514" y="44" type="line"/>
      <point x="568" y="32"/>
      <point x="644" y="24"/>
    </contour>
  </outline>
</glyph>
<glyph name="Eacute" format="2">
  <advance width="1336"/>
  <unicode hex="00C9"/>
  <outline>
    <contour>
      <point x="844" y="1708" type="line" smooth="yes"/>
      <point x="871" y="1728"/>
      <point x="903" y="1740"/>
      <point x="940" y="1740" type="curve" smooth="yes"/>
      <point x="1009" y="1740"/>
      <point x="1054" y="1686"/>
      <point x="1054" y="1626" type="curve" smooth="yes"/>
      <point x="1054" y="1570"/>
      <point x="1009" y="1527"/>
      <point x="940" y="1508" type="curve" smooth="yes"/>
      <point x="428" y="1374" type="line"/>
      <point x="422" y="1392" type="line"/>
    </contour>
    <contour>
      <point x="702" y="24" type="curve" smooth="yes"/>
      <point x="1002" y="24"/>
      <point x="1106" y="206"/>
      <point x="1146" y="584" type="curve"/>
      <point x="1168" y="584" type="line"/>
      <point x="1168" y="218"/>
      <point x="1216" y="49"/>
      <point x="1326" y="24" type="curve"/>
      <point x="1326" y="0" type="line"/>
      <point x="40" y="0" type="line"/>
      <point x="40" y="24" type="line"/>
      <point x="203" y="24"/>
      <point x="234" y="58"/>
      <point x="234" y="236" type="curve" smooth="yes"/>
      <point x="234" y="1064" type="line" smooth="yes"/>
      <point x="234" y="1242"/>
      <point x="203" y="1276"/>
      <point x="40" y="1276" type="curve"/>
      <point x="40" y="1300" type="line"/>
      <point x="1286" y="1300" type="line"/>
      <point x="1286" y="1276" type="line"/>
      <point x="1196" y="1252"/>
      <point x="1160" y="1125"/>
      <point x="1160" y="836" type="curve"/>
      <point x="1138" y="836" type="line"/>
      <point x="1098" y="1147"/>
      <point x="1010" y="1276"/>
      <point x="700" y="1276" type="curve" smooth="yes"/>
      <point x="636" y="1276"/>
      <point x="564" y="1268"/>
      <point x="514" y="1256" type="curve"/>
      <point x="514" y="720" type="line"/>
      <point x="602" y="720" type="line" smooth="yes"/>
      <point x="765" y="720"/>
      <point x="898" y="778"/>
      <point x="942" y="1056" type="curve"/>
      <point x="964" y="1056" type="line"/>
      <point x="921" y="807"/>
      <point x="912" y="727"/>
      <point x="912" y="524" type="curve" smooth="yes"/>
      <point x="912" y="302" type="line"/>
      <point x="890" y="302" type="line"/>
      <point x="889" y="574"/>
      <point x="750" y="692"/>
      <point x="602" y="692" type="curve" smooth="yes"/>
      <point x="514" y="692" type="line"/>
      <point x="514" y="44" type="line"/>
      <point x="568" y="32"/>
      <point x="644" y="24"/>
    </contour>
  </outline>
</glyph>
